<?xml version="1.0" encoding="utf-8"?>
<!-- Generator: Adobe Illustrator 27.6.1, SVG Export Plug-In . SVG Version: 6.00 Build 0)  -->
<svg version="1.1" id="Layer_1" xmlns="http://www.w3.org/2000/svg" xmlns:xlink="http://www.w3.org/1999/xlink" x="0px" y="0px"
	 viewBox="0 0 841.89 595.28" style="enable-background:new 0 0 841.89 595.28;" xml:space="preserve">
<style type="text/css">
	.st0{fill:#F9F9FA;stroke:#000000;stroke-width:7;stroke-miterlimit:10;}
	.st1{fill:#FFFFFF;stroke:#A5A4A4;stroke-width:16;stroke-miterlimit:10;}
	.st2{fill:#020203;}
	.st3{fill:#FFFFFF;}
	.st4{fill:#020202;}
	.st5{fill:none;stroke:#030403;stroke-width:3;stroke-miterlimit:10;}
	.st6{fill:#FFFFFF;stroke:#070A07;stroke-width:3;stroke-miterlimit:10;}
	.st7{fill:#FFFFFF;stroke:#070A07;stroke-width:0.25;stroke-miterlimit:10;}
	.st8{fill:none;stroke:#0B0E0A;stroke-width:2;stroke-miterlimit:10;}
	.st9{fill:#0B0E0A;stroke:#0B0E0A;stroke-width:0.25;stroke-miterlimit:10;}
	.st10{fill:#040504;}
	.st11{fill:none;stroke:#000000;stroke-width:12;stroke-miterlimit:10;}
	.st12{fill:#090706;}
	.st13{fill:#777777;}
	.st14{fill:none;stroke:#0A0807;stroke-miterlimit:10;}
	.st15{fill:#070605;}
	.st16{fill:none;stroke:#070605;stroke-miterlimit:10;}
	.st17{fill:none;stroke:#070605;stroke-width:10;stroke-miterlimit:10;}
	.st18{fill:none;stroke:#ED1C3D;stroke-width:9;stroke-miterlimit:10;}
	.st19{stroke:#ED1C3D;stroke-width:11;stroke-miterlimit:10;}
	.st20{fill:none;stroke:#000000;stroke-miterlimit:10;}
	.st21{fill:#080808;}
	.st22{fill:#ED1C26;}
	.st23{fill:none;stroke:#000000;stroke-width:4;stroke-miterlimit:10;}
	.st24{fill:none;stroke:#000000;stroke-width:13;stroke-miterlimit:10;}
	.st25{fill:none;stroke:#F4F4F5;stroke-width:3;stroke-miterlimit:10;}
	.st26{fill:none;stroke:#0A0505;stroke-width:19;stroke-miterlimit:10;}
	.st27{fill:none;stroke:#000000;stroke-width:14;stroke-miterlimit:10;}
	.st28{fill:none;stroke:#000000;stroke-width:11;stroke-miterlimit:10;}
	.st29{fill:#A5A4A4;}
	.st30{fill:none;stroke:#000000;stroke-width:20;stroke-miterlimit:10;}
	.st31{fill:#FFFFFF;stroke:#030202;stroke-width:11;stroke-miterlimit:10;}
	.st32{font-family:'Arial-Black';}
	.st33{font-size:20px;}
	.st34{fill:#FFFFFF;stroke:#070505;stroke-width:10;stroke-miterlimit:10;}
	.st35{fill:none;stroke:#000000;stroke-width:18;stroke-miterlimit:10;}
	.st36{fill:none;stroke:#000000;stroke-width:7;stroke-miterlimit:10;}
	.st37{fill:none;stroke:#070404;stroke-width:8;stroke-miterlimit:10;}
	.st38{fill:none;stroke:#070404;stroke-width:6;stroke-miterlimit:10;}
	.st39{fill:#070404;}
	.st40{fill:none;stroke:#070404;stroke-width:11;stroke-miterlimit:10;}
	.st41{fill:#ED1940;}
	.st42{fill:none;stroke:#000000;stroke-width:9;stroke-miterlimit:10;}
	.st43{fill:none;stroke:#000000;stroke-width:15;stroke-miterlimit:10;}
</style>
<circle class="st27" cx="457.84" cy="211.78" r="77.51"/>
<path class="st27" d="M553.95,330.96c-8.34-8.38-30.07-27.93-64.41-35.04c-3.31-0.69-43.37-8.43-82.08,10.7
	c-47.32,23.39-76.36,78.91-75.36,141.27c51.45,0,102.91,0,154.36,0"/>
<g>
	<path class="st30" d="M564.55,461h-0.07c-0.2,0-0.37-0.17-0.37-0.37V356.86c0-0.2,0.17-0.37,0.37-0.37h0.07
		c0.2,0,0.37,0.17,0.37,0.37v103.77C564.92,460.84,564.76,461,564.55,461z"/>
	<path class="st30" d="M511.61,410.03v-0.07c0-0.2,0.17-0.37,0.37-0.37h103.77c0.2,0,0.37,0.17,0.37,0.37v0.07
		c0,0.2-0.17,0.37-0.37,0.37H511.99C511.78,410.4,511.61,410.23,511.61,410.03z"/>
</g>
<g>
	<text transform="matrix(1 0 0 1 31.7872 48.5001)" class="st32 st33">KİŞİ EKLEME</text>
</g>
</svg>
