<?xml version="1.0" encoding="utf-8"?>
<!-- Generator: Adobe Illustrator 27.6.1, SVG Export Plug-In . SVG Version: 6.00 Build 0)  -->
<svg version="1.1" id="Layer_1" xmlns="http://www.w3.org/2000/svg" xmlns:xlink="http://www.w3.org/1999/xlink" x="0px" y="0px"
	 viewBox="0 0 841.89 595.28" style="enable-background:new 0 0 841.89 595.28;" xml:space="preserve">
<style type="text/css">
	.st0{fill:#F9F9FA;stroke:#000000;stroke-width:7;stroke-miterlimit:10;}
	.st1{fill:#FFFFFF;stroke:#A5A4A4;stroke-width:16;stroke-miterlimit:10;}
	.st2{fill:#020203;}
	.st3{fill:#FFFFFF;}
	.st4{fill:#020202;}
	.st5{fill:none;stroke:#030403;stroke-width:3;stroke-miterlimit:10;}
	.st6{fill:#FFFFFF;stroke:#070A07;stroke-width:3;stroke-miterlimit:10;}
	.st7{fill:#FFFFFF;stroke:#070A07;stroke-width:0.25;stroke-miterlimit:10;}
	.st8{fill:none;stroke:#0B0E0A;stroke-width:2;stroke-miterlimit:10;}
	.st9{fill:#0B0E0A;stroke:#0B0E0A;stroke-width:0.25;stroke-miterlimit:10;}
	.st10{fill:#040504;}
	.st11{fill:none;stroke:#000000;stroke-width:12;stroke-miterlimit:10;}
	.st12{fill:#090706;}
	.st13{fill:#777777;}
	.st14{fill:none;stroke:#0A0807;stroke-miterlimit:10;}
	.st15{fill:#070605;}
	.st16{fill:none;stroke:#070605;stroke-miterlimit:10;}
	.st17{fill:none;stroke:#070605;stroke-width:10;stroke-miterlimit:10;}
	.st18{fill:none;stroke:#ED1C3D;stroke-width:9;stroke-miterlimit:10;}
	.st19{stroke:#ED1C3D;stroke-width:11;stroke-miterlimit:10;}
	.st20{fill:none;stroke:#000000;stroke-miterlimit:10;}
	.st21{fill:#080808;}
	.st22{fill:#ED1C26;}
	.st23{fill:none;stroke:#000000;stroke-width:4;stroke-miterlimit:10;}
	.st24{fill:none;stroke:#000000;stroke-width:13;stroke-miterlimit:10;}
	.st25{fill:none;stroke:#F4F4F5;stroke-width:3;stroke-miterlimit:10;}
	.st26{fill:none;stroke:#0A0505;stroke-width:19;stroke-miterlimit:10;}
	.st27{fill:none;stroke:#000000;stroke-width:14;stroke-miterlimit:10;}
	.st28{fill:none;stroke:#000000;stroke-width:11;stroke-miterlimit:10;}
	.st29{fill:#A5A4A4;}
	.st30{fill:none;stroke:#000000;stroke-width:20;stroke-miterlimit:10;}
	.st31{fill:#FFFFFF;stroke:#030202;stroke-width:11;stroke-miterlimit:10;}
	.st32{fill:#FFFFFF;stroke:#070505;stroke-width:10;stroke-miterlimit:10;}
	.st33{fill:none;stroke:#000000;stroke-width:18;stroke-miterlimit:10;}
	.st34{font-family:'Arial-Black';}
	.st35{font-size:54.1714px;}
	.st36{fill:none;stroke:#000000;stroke-width:7;stroke-miterlimit:10;}
	.st37{font-size:20px;}
	.st38{fill:none;stroke:#070404;stroke-width:8;stroke-miterlimit:10;}
	.st39{fill:none;stroke:#070404;stroke-width:6;stroke-miterlimit:10;}
	.st40{fill:#070404;}
	.st41{fill:none;stroke:#070404;stroke-width:11;stroke-miterlimit:10;}
	.st42{fill:#ED1940;}
	.st43{fill:none;stroke:#000000;stroke-width:9;stroke-miterlimit:10;}
	.st44{fill:none;stroke:#000000;stroke-width:15;stroke-miterlimit:10;}
</style>
<ellipse transform="matrix(0.9676 -0.2527 0.2527 0.9676 -79.403 113.2065)" class="st0" cx="401.07" cy="365.76" rx="11.05" ry="33.14"/>
<g>
	<path class="st33" d="M547.66,283.03H308.19c-6.6,0-12-5.4-12-12v-63.12c0-6.6,5.4-12,12-12h239.47c6.6,0,12,5.4,12,12v63.12
		C559.66,277.63,554.26,283.03,547.66,283.03z"/>
	<path d="M432.6,441.14h-9.35c-6.6,0-12-5.4-12-12V295.03c0-6.6,5.4-12,12-12h9.35c6.6,0,12,5.4,12,12v134.11
		C444.6,435.74,439.2,441.14,432.6,441.14z"/>
	<text transform="matrix(1 0 0 1 407.9196 262.3943)" class="st34 st35">T</text>
</g>
<ellipse transform="matrix(0.7071 -0.7071 0.7071 0.7071 -139.8499 423.9855)" class="st0" cx="441.87" cy="380.81" rx="30.17" ry="11.05"/>
<ellipse transform="matrix(0.7071 -0.7071 0.7071 0.7071 -154.9869 435.0875)" class="st0" cx="447.7" cy="404.63" rx="30.17" ry="11.05"/>
<ellipse transform="matrix(0.7071 -0.7071 0.7071 0.7071 -170.2746 445.7714)" class="st0" cx="452.96" cy="428.43" rx="30.17" ry="11.05"/>
<path class="st36" d="M395.49,383.24c-6.16,31.28,3.86,58.08,21.78,65.99c3.66,1.61,10.76,3.81,21.45,1.48"/>
<text transform="matrix(1 0 0 1 27.2436 55.4616)" class="st34 st37">TEKLİF VER</text>
<polygon class="st3" points="410.96,386.3 397.31,394.31 398.86,411.64 411.25,413.94 "/>
</svg>
