<?xml version="1.0" encoding="utf-8"?>
<!-- Generator: Adobe Illustrator 27.6.1, SVG Export Plug-In . SVG Version: 6.00 Build 0)  -->
<svg version="1.1" id="Layer_1" xmlns="http://www.w3.org/2000/svg" xmlns:xlink="http://www.w3.org/1999/xlink" x="0px" y="0px"
	 viewBox="0 0 841.89 595.28" style="enable-background:new 0 0 841.89 595.28;" xml:space="preserve">
<style type="text/css">
	.st0{fill:#F9F9FA;stroke:#000000;stroke-width:7;stroke-miterlimit:10;}
	.st1{fill:#FFFFFF;stroke:#A5A4A4;stroke-width:16;stroke-miterlimit:10;}
	.st2{fill:#020203;}
	.st3{fill:#FFFFFF;}
	.st4{fill:#020202;}
	.st5{fill:none;stroke:#030403;stroke-width:3;stroke-miterlimit:10;}
	.st6{fill:#FFFFFF;stroke:#070A07;stroke-width:3;stroke-miterlimit:10;}
	.st7{fill:#FFFFFF;stroke:#070A07;stroke-width:0.25;stroke-miterlimit:10;}
	.st8{fill:none;stroke:#0B0E0A;stroke-width:2;stroke-miterlimit:10;}
	.st9{fill:#0B0E0A;stroke:#0B0E0A;stroke-width:0.25;stroke-miterlimit:10;}
	.st10{fill:#040504;}
	.st11{fill:none;stroke:#000000;stroke-width:12;stroke-miterlimit:10;}
	.st12{fill:#090706;}
	.st13{fill:#777777;}
	.st14{fill:none;stroke:#0A0807;stroke-miterlimit:10;}
	.st15{fill:#070605;}
	.st16{fill:none;stroke:#070605;stroke-miterlimit:10;}
	.st17{fill:none;stroke:#070605;stroke-width:10;stroke-miterlimit:10;}
	.st18{fill:none;stroke:#ED1C3D;stroke-width:9;stroke-miterlimit:10;}
	.st19{stroke:#ED1C3D;stroke-width:11;stroke-miterlimit:10;}
	.st20{fill:none;stroke:#000000;stroke-miterlimit:10;}
	.st21{fill:#080808;}
	.st22{fill:#ED1C26;}
	.st23{fill:none;stroke:#000000;stroke-width:4;stroke-miterlimit:10;}
	.st24{fill:none;stroke:#000000;stroke-width:13;stroke-miterlimit:10;}
	.st25{fill:none;stroke:#F4F4F5;stroke-width:3;stroke-miterlimit:10;}
	.st26{fill:none;stroke:#0A0505;stroke-width:19;stroke-miterlimit:10;}
	.st27{fill:none;stroke:#000000;stroke-width:14;stroke-miterlimit:10;}
	.st28{fill:none;stroke:#000000;stroke-width:11;stroke-miterlimit:10;}
	.st29{fill:#A5A4A4;}
	.st30{fill:none;stroke:#000000;stroke-width:20;stroke-miterlimit:10;}
	.st31{fill:#FFFFFF;stroke:#030202;stroke-width:11;stroke-miterlimit:10;}
	.st32{fill:#FFFFFF;stroke:#070505;stroke-width:10;stroke-miterlimit:10;}
	.st33{fill:none;stroke:#000000;stroke-width:18;stroke-miterlimit:10;}
	.st34{fill:none;stroke:#000000;stroke-width:7;stroke-miterlimit:10;}
	.st35{fill:none;stroke:#070404;stroke-width:8;stroke-miterlimit:10;}
	.st36{fill:none;stroke:#070404;stroke-width:6;stroke-miterlimit:10;}
	.st37{fill:#070404;}
	.st38{fill:none;stroke:#070404;stroke-width:11;stroke-miterlimit:10;}
	.st39{fill:#ED1940;}
	.st40{fill:none;stroke:#000000;stroke-width:9;stroke-miterlimit:10;}
	.st41{font-family:'Arial-Black';}
	.st42{font-size:20px;}
	.st43{fill:none;stroke:#000000;stroke-width:15;stroke-miterlimit:10;}
</style>
<g>
	<g>
		<circle cx="443.71" cy="297.27" r="83.1"/>
		<g>
			<path d="M444.05,184.24l-0.65,47.58l-23.07-13.87l4.18-29.05c0,0,1.43-4.66,6.34-4.66S444.05,184.24,444.05,184.24z"/>
			<path d="M443.38,184.24l0.65,47.58l23.07-13.87l-4.18-29.05c0,0-1.43-4.66-6.34-4.66S443.38,184.24,443.38,184.24z"/>
			<polygon points="439.48,208.03 451.63,208.76 444.02,231.81 443.4,231.81 			"/>
		</g>
		<g>
			<path d="M445.78,410.72l-0.55-47.58l23.41,13.28l-3.45,29.14c0,0-1.32,4.7-6.22,4.82C454.08,410.51,445.78,410.72,445.78,410.72z
				"/>
			<path d="M446.45,410.7l-1.85-47.55l-22.71,14.44l4.91,28.93c0,0,1.55,4.62,6.45,4.5C438.16,410.91,446.45,410.7,446.45,410.7z"/>
			<polygon points="449.75,386.82 437.58,386.4 444.61,363.16 445.23,363.14 			"/>
		</g>
		<g>
			<path d="M557.08,294.7l-47.57,0.85l13.13-23.5l29.17,3.27c0,0,4.7,1.29,4.86,6.19C556.82,286.41,557.08,294.7,557.08,294.7z"/>
			<path d="M557.06,294.03l-47.53,2.14l14.58,22.62l28.9-5.09c0,0,4.61-1.58,4.46-6.48C557.32,302.33,557.06,294.03,557.06,294.03z"
				/>
			<polygon points="533.16,290.88 532.81,303.05 509.53,296.17 509.51,295.55 			"/>
		</g>
		<g>
			<path d="M330.82,293.43l47.57,0.85l-13.13-23.5l-29.17,3.27c0,0-4.7,1.29-4.86,6.19C331.09,285.14,330.82,293.43,330.82,293.43z"
				/>
			<path d="M330.85,292.76l47.53,2.14l-14.59,22.62l-28.9-5.09c0,0-4.61-1.58-4.46-6.48C330.59,301.05,330.85,292.76,330.85,292.76z
				"/>
			<polygon points="354.75,289.61 355.1,301.78 378.38,294.9 378.4,294.28 			"/>
		</g>
		<g>
			<path d="M524.05,217.22l-33.5,33.79l26.06,6.75l17.8-23.33c0,0,2.32-4.29-1.11-7.79C529.86,223.15,524.05,217.22,524.05,217.22z"
				/>
			<path d="M524.52,217.71l-34.41,32.86l-6.26-26.18l23.66-17.36c0,0,4.33-2.24,7.77,1.26
				C518.71,211.78,524.52,217.71,524.52,217.71z"/>
			<polygon points="510.27,237.15 501.23,228.99 490.11,250.57 490.54,251.01 			"/>
		</g>
		<g>
			<path d="M361.76,375.88l34.93-32.3l5.84,26.28l-23.94,16.98c0,0-4.37,2.17-7.74-1.38C367.48,381.89,361.76,375.88,361.76,375.88z
				"/>
			<path d="M362.22,376.37l34.04-33.25l-25.95-7.17l-18.17,23.04c0,0-2.39,4.25,0.99,7.8C356.51,370.35,362.22,376.37,362.22,376.37
				z"/>
			<polygon points="382.15,362.81 374.31,353.49 396.26,343.12 396.69,343.57 			"/>
		</g>
		<g>
			<path d="M526.24,375.05l-34.2-33.08l25.91-7.3l18.29,22.95c0,0,2.41,4.24-0.95,7.81S526.24,375.05,526.24,375.05z"/>
			<path d="M526.7,374.56l-35.09-32.13l-5.71,26.3l24.02,16.86c0,0,4.38,2.15,7.74-1.42C521.01,380.6,526.7,374.56,526.7,374.56z"/>
			<polygon points="512.05,355.41 503.18,363.76 491.61,342.42 492.03,341.97 			"/>
		</g>
		<g>
			<path d="M367.65,213.24l31.51,35.65l-26.4,5.25l-16.43-24.31c0,0-2.07-4.42,1.55-7.71S367.65,213.24,367.65,213.24z"/>
			<path d="M367.15,213.7l32.47,34.78l7.75-25.78l-22.63-18.69c0,0-4.2-2.49-7.82,0.81S367.15,213.7,367.15,213.7z"/>
			<polygon points="380.26,233.93 389.75,226.3 399.62,248.48 399.16,248.9 			"/>
		</g>
	</g>
	<circle class="st3" cx="444.05" cy="295.69" r="25.1"/>
</g>
<text transform="matrix(1 0 0 1 40.9763 51.3921)" class="st41 st42">AYARLAR</text>
</svg>
