<?xml version="1.0" encoding="utf-8"?>
<!-- Generator: Adobe Illustrator 27.6.1, SVG Export Plug-In . SVG Version: 6.00 Build 0)  -->
<svg version="1.1" id="Layer_1" xmlns="http://www.w3.org/2000/svg" xmlns:xlink="http://www.w3.org/1999/xlink" x="0px" y="0px"
	 viewBox="0 0 841.89 595.28" style="enable-background:new 0 0 841.89 595.28;" xml:space="preserve">
<style type="text/css">
	.st0{fill:#F9F9FA;stroke:#000000;stroke-width:7;stroke-miterlimit:10;}
	.st1{fill:#FFFFFF;stroke:#A5A4A4;stroke-width:16;stroke-miterlimit:10;}
	.st2{fill:#020203;}
	.st3{fill:#FFFFFF;}
	.st4{fill:#020202;}
	.st5{fill:none;stroke:#030403;stroke-width:3;stroke-miterlimit:10;}
	.st6{fill:#FFFFFF;stroke:#070A07;stroke-width:3;stroke-miterlimit:10;}
	.st7{fill:#FFFFFF;stroke:#070A07;stroke-width:0.25;stroke-miterlimit:10;}
	.st8{fill:none;stroke:#0B0E0A;stroke-width:2;stroke-miterlimit:10;}
	.st9{fill:#0B0E0A;stroke:#0B0E0A;stroke-width:0.25;stroke-miterlimit:10;}
	.st10{fill:#040504;}
	.st11{fill:none;stroke:#000000;stroke-width:12;stroke-miterlimit:10;}
	.st12{fill:#090706;}
	.st13{fill:#777777;}
	.st14{fill:none;stroke:#0A0807;stroke-miterlimit:10;}
	.st15{fill:#070605;}
	.st16{fill:none;stroke:#070605;stroke-miterlimit:10;}
	.st17{fill:none;stroke:#070605;stroke-width:10;stroke-miterlimit:10;}
	.st18{fill:none;stroke:#ED1C3D;stroke-width:9;stroke-miterlimit:10;}
	.st19{stroke:#ED1C3D;stroke-width:11;stroke-miterlimit:10;}
	.st20{fill:none;stroke:#000000;stroke-miterlimit:10;}
	.st21{fill:#080808;}
	.st22{fill:#ED1C26;}
	.st23{fill:none;stroke:#000000;stroke-width:4;stroke-miterlimit:10;}
	.st24{fill:none;stroke:#000000;stroke-width:13;stroke-miterlimit:10;}
	.st25{fill:none;stroke:#F4F4F5;stroke-width:3;stroke-miterlimit:10;}
	.st26{fill:none;stroke:#0A0505;stroke-width:19;stroke-miterlimit:10;}
	.st27{fill:none;stroke:#000000;stroke-width:14;stroke-miterlimit:10;}
	.st28{fill:none;stroke:#000000;stroke-width:11;stroke-miterlimit:10;}
	.st29{fill:#A5A4A4;}
	.st30{fill:none;stroke:#000000;stroke-width:20;stroke-miterlimit:10;}
	.st31{fill:#FFFFFF;stroke:#030202;stroke-width:11;stroke-miterlimit:10;}
	.st32{fill:#FFFFFF;stroke:#070505;stroke-width:10;stroke-miterlimit:10;}
	.st33{fill:none;stroke:#000000;stroke-width:18;stroke-miterlimit:10;}
	.st34{fill:none;stroke:#000000;stroke-width:7;stroke-miterlimit:10;}
	.st35{fill:none;stroke:#070404;stroke-width:8;stroke-miterlimit:10;}
	.st36{fill:none;stroke:#070404;stroke-width:6;stroke-miterlimit:10;}
	.st37{fill:#070404;}
	.st38{fill:none;stroke:#070404;stroke-width:11;stroke-miterlimit:10;}
	.st39{fill:#ED1940;}
	.st40{fill:none;stroke:#000000;stroke-width:9;stroke-miterlimit:10;}
	.st41{fill:none;stroke:#000000;stroke-width:15;stroke-miterlimit:10;}
</style>
<polygon class="st38" points="331.64,249.74 398.39,301.52 434.38,211.53 472.91,299.01 535.26,251.24 495.04,349.28 373.87,349.28 
	"/>
<g>
	<g>
		<g>
			<path class="st39" d="M31.53,507.5c1.44,0,2.59,0.35,3.42,1.16c0.79,0.78,1.34,2.05,1.34,3.83c0,3.94-2.53,5.54-4.45,5.54
				c-0.22,0-0.43-0.03-0.55-0.05l-1.4-0.49v4.21c0,2.27,0.14,2.32,2,2.59v0.76H26.3v-0.76c1.74-0.24,1.82-0.41,1.82-2.65v-10.72
				c0-2.4-0.22-2.46-1.82-2.67v-0.76H31.53z M29.89,516.55c0.24,0.16,0.79,0.35,1.48,0.35c1.36,0,3.04-0.92,3.04-4.32
				c0-2.97-1.46-4.16-3.16-4.16c-0.59,0-1.01,0.13-1.13,0.32c-0.16,0.19-0.22,0.51-0.22,1.24V516.55z"/>
			<path class="st39" d="M49.98,525.27c-0.26,0-0.49-0.03-0.75-0.05c-1.48-0.13-2.27-0.65-3.16-2.32c-0.75-1.38-1.48-3.08-2.13-4.46
				c-0.41-0.86-0.67-1.03-1.7-1.03h-0.71v4.24c0,2.3,0.22,2.43,1.84,2.65v0.76h-5.41v-0.76c1.68-0.24,1.82-0.35,1.82-2.65v-10.78
				c0-2.29-0.22-2.38-1.82-2.62v-0.76h5.16c1.48,0,2.47,0.24,3.24,0.92c0.83,0.7,1.38,1.92,1.38,3.56c0,2.32-1.11,3.78-2.61,4.65
				c0.36,0.84,1.24,2.65,1.84,3.86c0.75,1.43,1.13,2.11,1.6,2.78c0.55,0.78,1.01,1.08,1.48,1.24L49.98,525.27z M42.51,516.5
				c1.05,0,1.72-0.22,2.23-0.78c0.79-0.78,1.11-1.86,1.11-3.32c0-2.89-1.44-3.94-3-3.94c-0.59,0-0.93,0.11-1.07,0.27
				c-0.18,0.19-0.24,0.46-0.24,1.16v6.62H42.51z"/>
			<path class="st39" d="M60.89,520.76c-0.12,0.7-0.67,3.48-0.87,4.29h-9.84v-0.76c1.88-0.19,2.02-0.43,2.02-2.65v-10.67
				c0-2.4-0.22-2.54-1.74-2.73v-0.76h6.2c1.9,0,2.69-0.03,2.94-0.05c0.02,0.68,0.1,2.7,0.18,4.13l-0.61,0.13
				c-0.18-0.92-0.38-1.49-0.61-2.05c-0.32-0.89-0.79-1.08-2-1.08h-1.92c-0.63,0-0.67,0.08-0.67,0.86v5.97h2.25
				c1.52,0,1.62-0.41,1.86-2.24h0.63v5.56h-0.63c-0.26-1.94-0.42-2.21-1.88-2.21h-2.23v5.37c0,1.89,0.45,2.05,1.46,2.08h1.88
				c1.24,0,1.44-0.24,1.88-0.95c0.38-0.57,0.81-1.67,1.09-2.49L60.89,520.76z"/>
			<path class="st39" d="M73.59,525.06v-0.76c1.66-0.22,1.72-0.38,1.7-3.27l0.02-11.02c-1.66,4.94-4.33,12.67-5.04,15.04h-0.53
				c-0.69-2.46-2.98-9.88-4.52-14.77c-0.34,9.45-0.36,11.59-0.36,12.1c0.02,1.51,0.53,1.73,1.9,1.92v0.76h-4.8v-0.76
				c1.17-0.16,1.66-0.49,1.82-1.95c0.12-1.19,0.14-2.16,0.67-12.02c0.08-1.4-0.12-1.86-1.9-2.08v-0.76h3.52l4.47,13.69l4.8-13.69
				h3.54v0.76c-1.74,0.27-1.96,0.51-1.92,2.4l0.08,10.37c0.08,2.89,0.14,3.03,1.92,3.27v0.76H73.59z"/>
			<path class="st39" d="M80.63,525.06v-0.76c1.66-0.24,1.82-0.35,1.82-2.65v-10.72c0-2.32-0.16-2.43-1.82-2.67v-0.76h5.43v0.76
				c-1.68,0.24-1.84,0.35-1.84,2.67v10.72c0,2.32,0.16,2.4,1.84,2.65v0.76H80.63z"/>
			<path class="st39" d="M101.69,508.26c-1.28,0.11-1.74,0.54-1.78,1.78c-0.02,0.62-0.06,1.76-0.06,4.24v2.92
				c0,2.75-0.24,4.86-1.42,6.51c-0.95,1.32-2.33,1.73-3.73,1.73c-1.17,0-2.43-0.32-3.32-1.24c-1.21-1.24-1.8-3.11-1.8-6.27v-6.89
				c0-2.43-0.16-2.59-1.78-2.78v-0.76h5.33v0.76c-1.62,0.13-1.78,0.35-1.78,2.78v6.75c0,3.94,1.4,6.1,3.83,6.1
				c2.88,0,3.79-2.38,3.79-6.86v-2.75c0-2.48-0.06-3.51-0.1-4.24c-0.06-1.21-0.53-1.67-2.03-1.78v-0.76h4.86V508.26z"/>
			<path class="st39" d="M114.1,525.06v-0.76c1.66-0.22,1.72-0.38,1.7-3.27l0.02-11.02c-1.66,4.94-4.33,12.67-5.04,15.04h-0.53
				c-0.69-2.46-2.98-9.88-4.52-14.77c-0.34,9.45-0.36,11.59-0.36,12.1c0.02,1.51,0.53,1.73,1.9,1.92v0.76h-4.8v-0.76
				c1.17-0.16,1.66-0.49,1.82-1.95c0.12-1.19,0.14-2.16,0.67-12.02c0.08-1.4-0.12-1.86-1.9-2.08v-0.76h3.52l4.47,13.69l4.8-13.69
				h3.54v0.76c-1.74,0.27-1.96,0.51-1.92,2.4l0.08,10.37c0.08,2.89,0.14,3.03,1.92,3.27v0.76H114.1z"/>
			<path class="st39" d="M139.08,517.69c-1.26,0.22-1.34,0.38-1.34,1.97v2.27c0,0.95,0.02,1.84,0.12,2.57
				c-1.26,0.38-2.9,0.97-4.6,0.97c-4.6,0-7.39-3.81-7.39-9.24c0-5.7,3.48-9.1,7.53-9.1c2.07,0,3.58,0.54,4.21,0.68
				c0.04,1,0.14,2.65,0.3,4.35l-0.61,0.16c-0.49-2.3-1.07-3.27-2.35-3.83c-0.47-0.22-1.3-0.35-1.88-0.35c-3.1,0-5.1,2.83-5.1,7.78
				c0,4.29,1.66,8.56,5.59,8.56c0.69,0,1.32-0.19,1.72-0.46c0.43-0.32,0.69-0.62,0.69-1.73v-2.21c0-1.97-0.16-2.19-2.11-2.38v-0.78
				h5.2V517.69z"/>
			<path class="st39" d="M141.27,504.21c0-0.7,0.45-1.35,1.01-1.35c0.55,0,0.97,0.65,0.97,1.35s-0.42,1.38-0.97,1.38
				C141.7,505.59,141.27,504.91,141.27,504.21z M143.13,506.86v18.2h-1.76v-18.2H143.13z"/>
			<path class="st39" d="M152.51,515.55c1.94,0.43,3.52,1.67,3.52,4.29c0,1.84-0.77,3.29-1.96,4.16c-1.05,0.78-2.09,1.05-3.5,1.05
				h-4.98v-0.76c1.72-0.22,1.82-0.46,1.82-2.59v-10.83c0-2.24-0.18-2.43-1.82-2.62v-0.76h5.3c1.52,0,2.47,0.35,3.12,0.95
				c0.71,0.65,1.19,1.65,1.19,3.03C155.2,514.01,153.64,515.17,152.51,515.55z M150.18,515.23c2.23,0,3.14-1.19,3.14-3.4
				c0-1.89-0.87-3.35-2.81-3.35c-0.57,0-0.93,0.08-1.13,0.27c-0.16,0.16-0.22,0.46-0.22,1.32v5.16H150.18z M149.15,521.66
				c0,1.95,0.34,2.43,1.78,2.43c1.58,0,3.12-1.13,3.12-3.97c0-2.75-1.46-3.94-3.93-3.94h-0.97V521.66z"/>
			<path class="st39" d="M158.22,504.21c0-0.7,0.45-1.35,1.01-1.35c0.55,0,0.97,0.65,0.97,1.35s-0.42,1.38-0.97,1.38
				C158.65,505.59,158.22,504.91,158.22,504.21z M160.09,506.86v18.2h-1.76v-18.2H160.09z"/>
			<path class="st39" d="M174.12,507.13c3.46,0,6.56,3.54,6.56,8.91c0,5.81-2.96,9.43-6.68,9.43c-3.89,0-6.72-3.94-6.72-9.02
				C167.28,511.61,169.85,507.13,174.12,507.13z M173.72,508.13c-2.27,0-4.33,2.54-4.33,7.59c0,5.02,2.07,8.72,4.94,8.72
				c2.45,0,4.29-2.43,4.29-7.64C178.62,511.12,176.37,508.13,173.72,508.13z M173.01,503.78c0,0.76-0.47,1.4-1.03,1.4
				c-0.57,0-1.05-0.65-1.05-1.4c0-0.81,0.49-1.46,1.05-1.46C172.56,502.32,173.01,502.97,173.01,503.78z M177.06,503.78
				c0,0.76-0.46,1.4-1.05,1.4c-0.59,0-1.05-0.65-1.05-1.4c0-0.84,0.47-1.46,1.05-1.46C176.59,502.32,177.06,502.94,177.06,503.78z"
				/>
			<path class="st39" d="M193.71,520.44c-0.14,0.92-0.63,3.46-0.83,4.62h-10.53l-0.18-0.43c2.81-5.19,5.63-10.56,8.48-16.04h-3.99
				c-1.8,0-2.11,0.16-2.53,1c-0.2,0.35-0.51,1.24-0.77,2.27l-0.61-0.03c0.1-1.4,0.34-3.75,0.38-4.94h0.53
				c0.22,0.65,0.47,0.62,1.07,0.62h8.18l0.16,0.43c-2.81,5.27-5.55,10.51-8.34,15.96c0.63,0.05,1.94,0.08,3.32,0.08
				c2.65,0,3.26-0.14,3.83-0.97c0.42-0.57,0.87-1.62,1.23-2.75L193.71,520.44z"/>
			<path class="st39" d="M205.49,520.76c-0.12,0.7-0.67,3.48-0.87,4.29h-9.84v-0.76c1.88-0.19,2.02-0.43,2.02-2.65v-10.67
				c0-2.4-0.22-2.54-1.74-2.73v-0.76h6.2c1.9,0,2.69-0.03,2.94-0.05c0.02,0.68,0.1,2.7,0.18,4.13l-0.61,0.13
				c-0.18-0.92-0.38-1.49-0.61-2.05c-0.32-0.89-0.79-1.08-2-1.08h-1.92c-0.63,0-0.67,0.08-0.67,0.86v5.97h2.25
				c1.52,0,1.62-0.41,1.86-2.24h0.63v5.56h-0.63c-0.26-1.94-0.42-2.21-1.88-2.21h-2.23v5.37c0,1.89,0.45,2.05,1.46,2.08h1.88
				c1.24,0,1.44-0.24,1.88-0.95c0.38-0.57,0.81-1.67,1.09-2.49L205.49,520.76z"/>
			<path class="st39" d="M217.08,520.58c-0.12,0.84-0.73,3.65-0.93,4.48h-9.42v-0.76c1.84-0.24,2-0.38,2-2.67v-10.72
				c0-2.3-0.2-2.43-1.82-2.65v-0.76h5.43v0.76c-1.62,0.22-1.84,0.32-1.84,2.65v10.99c0,1.65,0.16,2.03,1.32,2.05
				c0.02,0,1.48,0.03,1.6,0.03c1.03,0,1.34-0.16,1.8-0.84c0.51-0.7,0.93-1.78,1.24-2.78L217.08,520.58z"/>
			<path class="st39" d="M236.97,508.26c-1.28,0.11-1.74,0.54-1.78,1.78c-0.02,0.62-0.06,1.76-0.06,4.24v2.92
				c0,2.75-0.24,4.86-1.42,6.51c-0.95,1.32-2.33,1.73-3.73,1.73c-1.17,0-2.43-0.32-3.32-1.24c-1.21-1.24-1.8-3.11-1.8-6.27v-6.89
				c0-2.43-0.16-2.59-1.78-2.78v-0.76h5.33v0.76c-1.62,0.13-1.78,0.35-1.78,2.78v6.75c0,3.94,1.4,6.1,3.83,6.1
				c2.88,0,3.79-2.38,3.79-6.86v-2.75c0-2.48-0.06-3.51-0.1-4.24c-0.06-1.21-0.53-1.67-2.03-1.78v-0.76h4.86V508.26z M229.17,503.94
				c0,0.76-0.47,1.4-1.03,1.4c-0.57,0-1.05-0.65-1.05-1.4c0-0.81,0.49-1.46,1.05-1.46C228.73,502.48,229.17,503.13,229.17,503.94z
				 M233.22,503.94c0,0.76-0.47,1.4-1.05,1.4c-0.59,0-1.05-0.65-1.05-1.4c0-0.84,0.47-1.46,1.05-1.46
				C232.76,502.48,233.22,503.1,233.22,503.94z"/>
			<path class="st39" d="M249.02,508.26c-1.42,0.22-1.66,0.51-2.47,2.24c-0.91,1.97-1.66,3.83-2.65,6.24
				c-0.24,0.62-0.3,0.95-0.3,1.59v3.32c0,2.24,0.18,2.4,2.07,2.65v0.76h-5.81v-0.76c1.84-0.32,1.98-0.38,1.98-2.65v-3.48
				c0-0.54-0.08-0.78-0.41-1.57c-0.71-1.76-1.4-3.46-2.49-6c-0.79-1.84-0.99-2.16-2.37-2.35v-0.76h4.98v0.76
				c-1.46,0.27-1.38,0.62-1.01,1.54c0.85,2.08,1.8,4.51,2.65,6.54c0.73-1.81,1.88-4.75,2.45-6.24c0.47-1.35,0.41-1.62-1.19-1.84
				v-0.76h4.58V508.26z"/>
			<path class="st39" d="M259.53,520.76c-0.12,0.7-0.67,3.48-0.87,4.29h-9.84v-0.76c1.88-0.19,2.02-0.43,2.02-2.65v-10.67
				c0-2.4-0.22-2.54-1.74-2.73v-0.76h6.2c1.9,0,2.69-0.03,2.94-0.05c0.02,0.68,0.1,2.7,0.18,4.13l-0.61,0.13
				c-0.18-0.92-0.38-1.49-0.61-2.05c-0.32-0.89-0.79-1.08-2-1.08h-1.92c-0.63,0-0.67,0.08-0.67,0.86v5.97h2.25
				c1.52,0,1.62-0.41,1.86-2.24h0.63v5.56h-0.63c-0.26-1.94-0.42-2.21-1.88-2.21h-2.23v5.37c0,1.89,0.45,2.05,1.46,2.08h1.88
				c1.24,0,1.44-0.24,1.88-0.95c0.38-0.57,0.81-1.67,1.09-2.49L259.53,520.76z"/>
			<path class="st39" d="M271.12,520.58c-0.12,0.84-0.73,3.65-0.93,4.48h-9.42v-0.76c1.84-0.24,2-0.38,2-2.67v-10.72
				c0-2.3-0.2-2.43-1.82-2.65v-0.76h5.43v0.76c-1.62,0.22-1.84,0.32-1.84,2.65v10.99c0,1.65,0.16,2.03,1.32,2.05
				c0.02,0,1.48,0.03,1.6,0.03c1.03,0,1.34-0.16,1.8-0.84c0.51-0.7,0.93-1.78,1.24-2.78L271.12,520.58z"/>
			<path class="st39" d="M282.97,520.76c-0.12,0.7-0.67,3.48-0.87,4.29h-9.84v-0.76c1.88-0.19,2.02-0.43,2.02-2.65v-10.67
				c0-2.4-0.22-2.54-1.74-2.73v-0.76h6.2c1.9,0,2.69-0.03,2.94-0.05c0.02,0.68,0.1,2.7,0.18,4.13l-0.61,0.13
				c-0.18-0.92-0.38-1.49-0.61-2.05c-0.32-0.89-0.79-1.08-2-1.08h-1.92c-0.63,0-0.67,0.08-0.67,0.86v5.97h2.25
				c1.52,0,1.62-0.41,1.86-2.24h0.63v5.56h-0.63c-0.26-1.94-0.42-2.21-1.88-2.21h-2.23v5.37c0,1.89,0.45,2.05,1.46,2.08h1.88
				c1.24,0,1.44-0.24,1.88-0.95c0.38-0.57,0.81-1.67,1.09-2.49L282.97,520.76z"/>
			<path class="st39" d="M296.4,525.27c-0.26,0-0.49-0.03-0.75-0.05c-1.48-0.13-2.27-0.65-3.16-2.32c-0.75-1.38-1.48-3.08-2.13-4.46
				c-0.41-0.86-0.67-1.03-1.7-1.03h-0.71v4.24c0,2.3,0.22,2.43,1.84,2.65v0.76h-5.41v-0.76c1.68-0.24,1.82-0.35,1.82-2.65v-10.78
				c0-2.29-0.22-2.38-1.82-2.62v-0.76h5.16c1.48,0,2.47,0.24,3.24,0.92c0.83,0.7,1.38,1.92,1.38,3.56c0,2.32-1.11,3.78-2.61,4.65
				c0.36,0.84,1.24,2.65,1.84,3.86c0.75,1.43,1.13,2.11,1.6,2.78c0.55,0.78,1.01,1.08,1.48,1.24L296.4,525.27z M288.93,516.5
				c1.05,0,1.72-0.22,2.23-0.78c0.79-0.78,1.11-1.86,1.11-3.32c0-2.89-1.44-3.94-3-3.94c-0.59,0-0.93,0.11-1.07,0.27
				c-0.18,0.19-0.24,0.46-0.24,1.16v6.62H288.93z"/>
			<path class="st39" d="M313.9,508.26c-1.36,0.24-1.7,0.49-2.43,2.92c-0.55,1.78-3.34,10.83-4.33,14.18h-0.67
				c-1.19-4.35-2.94-10.67-4.09-14.67c-0.57-2-0.91-2.27-2.15-2.43v-0.76h5.14v0.76c-1.5,0.22-1.58,0.54-1.3,1.54
				c0.51,1.97,1.98,7.35,3.26,11.83c1.07-3.48,2.41-7.89,3.36-11.29c0.45-1.57,0.2-1.81-1.46-2.08v-0.76h4.66V508.26z"/>
			<path class="st39" d="M324.61,520.76c-0.12,0.7-0.67,3.48-0.87,4.29h-9.84v-0.76c1.88-0.19,2.02-0.43,2.02-2.65v-10.67
				c0-2.4-0.22-2.54-1.74-2.73v-0.76h6.2c1.9,0,2.69-0.03,2.94-0.05c0.02,0.68,0.1,2.7,0.18,4.13l-0.61,0.13
				c-0.18-0.92-0.38-1.49-0.61-2.05c-0.32-0.89-0.79-1.08-2-1.08h-1.92c-0.63,0-0.67,0.08-0.67,0.86v5.97h2.25
				c1.52,0,1.62-0.41,1.86-2.24h0.63v5.56h-0.63c-0.26-1.94-0.42-2.21-1.88-2.21h-2.23v5.37c0,1.89,0.45,2.05,1.46,2.08h1.88
				c1.24,0,1.44-0.24,1.88-0.95c0.38-0.57,0.81-1.67,1.09-2.49L324.61,520.76z"/>
			<path class="st39" d="M336.95,508.26c-1.42,0.22-1.66,0.51-2.47,2.24c-0.91,1.97-1.66,3.83-2.65,6.24
				c-0.24,0.62-0.3,0.95-0.3,1.59v3.32c0,2.24,0.18,2.4,2.07,2.65v0.76h-5.81v-0.76c1.84-0.32,1.98-0.38,1.98-2.65v-3.48
				c0-0.54-0.08-0.78-0.41-1.57c-0.71-1.76-1.4-3.46-2.49-6c-0.79-1.84-0.99-2.16-2.37-2.35v-0.76h4.98v0.76
				c-1.46,0.27-1.38,0.62-1.01,1.54c0.85,2.08,1.8,4.51,2.65,6.54c0.73-1.81,1.88-4.75,2.45-6.24c0.47-1.35,0.41-1.62-1.19-1.84
				v-0.76h4.58V508.26z"/>
			<path class="st39" d="M343.78,525.06v-0.76c1.32-0.22,1.48-0.49,1.19-1.51c-0.26-1.05-0.67-2.4-1.09-4.11h-4.37
				c-0.32,1.22-0.63,2.27-0.91,3.38c-0.45,1.76-0.16,1.97,1.5,2.24v0.76h-4.68v-0.76c1.28-0.22,1.6-0.41,2.31-2.84l4.19-14.18
				l0.65-0.16c1.28,4.62,2.67,9.72,3.95,14.4c0.65,2.35,0.83,2.57,2.27,2.78v0.76H343.78z M341.75,510.66
				c-0.65,2.32-1.34,4.78-1.94,6.91h3.79L341.75,510.66z"/>
			<path class="st39" d="M354.53,504.21c0-0.7,0.45-1.35,1.01-1.35c0.55,0,0.97,0.65,0.97,1.35s-0.42,1.38-0.97,1.38
				C354.96,505.59,354.53,504.91,354.53,504.21z M356.4,506.86v18.2h-1.76v-18.2H356.4z"/>
			<path class="st39" d="M369.01,520.58c-0.12,0.84-0.73,3.65-0.93,4.48h-9.42v-0.76c1.84-0.24,2-0.38,2-2.67v-10.72
				c0-2.3-0.2-2.43-1.82-2.65v-0.76h5.43v0.76c-1.62,0.22-1.84,0.32-1.84,2.65v10.99c0,1.65,0.16,2.03,1.32,2.05
				c0.02,0,1.48,0.03,1.6,0.03c1.03,0,1.34-0.16,1.8-0.84c0.51-0.7,0.93-1.78,1.24-2.78L369.01,520.58z"/>
			<path class="st39" d="M380.86,520.76c-0.12,0.7-0.67,3.48-0.87,4.29h-9.84v-0.76c1.88-0.19,2.02-0.43,2.02-2.65v-10.67
				c0-2.4-0.22-2.54-1.74-2.73v-0.76h6.2c1.9,0,2.69-0.03,2.94-0.05c0.02,0.68,0.1,2.7,0.18,4.13l-0.61,0.13
				c-0.18-0.92-0.38-1.49-0.61-2.05c-0.32-0.89-0.79-1.08-2-1.08h-1.92c-0.63,0-0.67,0.08-0.67,0.86v5.97h2.25
				c1.52,0,1.62-0.41,1.86-2.24h0.63v5.56h-0.63c-0.26-1.94-0.42-2.21-1.88-2.21h-2.23v5.37c0,1.89,0.45,2.05,1.46,2.08h1.88
				c1.24,0,1.44-0.24,1.88-0.95c0.38-0.57,0.81-1.67,1.09-2.49L380.86,520.76z"/>
			<path class="st39" d="M394.29,525.27c-0.26,0-0.49-0.03-0.75-0.05c-1.48-0.13-2.27-0.65-3.16-2.32
				c-0.75-1.38-1.48-3.08-2.13-4.46c-0.41-0.86-0.67-1.03-1.7-1.03h-0.71v4.24c0,2.3,0.22,2.43,1.84,2.65v0.76h-5.41v-0.76
				c1.68-0.24,1.82-0.35,1.82-2.65v-10.78c0-2.29-0.22-2.38-1.82-2.62v-0.76h5.16c1.48,0,2.47,0.24,3.24,0.92
				c0.83,0.7,1.38,1.92,1.38,3.56c0,2.32-1.11,3.78-2.61,4.65c0.36,0.84,1.24,2.65,1.84,3.86c0.75,1.43,1.13,2.11,1.6,2.78
				c0.55,0.78,1.01,1.08,1.48,1.24L394.29,525.27z M386.82,516.5c1.05,0,1.72-0.22,2.23-0.78c0.79-0.78,1.11-1.86,1.11-3.32
				c0-2.89-1.44-3.94-3-3.94c-0.59,0-0.93,0.11-1.07,0.27c-0.18,0.19-0.24,0.46-0.24,1.16v6.62H386.82z"/>
			<path class="st39" d="M400.33,507.5c2.86,0,4.66,0.76,5.91,2.35c0.99,1.3,1.72,3.19,1.72,5.78c0,3.16-0.97,5.73-2.53,7.29
				c-1.54,1.54-3.5,2.13-5.99,2.13h-4.74v-0.76c1.74-0.22,1.82-0.41,1.82-2.62v-10.78c0-2.32-0.24-2.43-1.82-2.65v-0.76H400.33z
				 M398.28,521.47c0,2.03,0.65,2.59,2.17,2.59c3.64,0,5.51-3.32,5.51-8.05c0-2.94-0.75-5.19-2.35-6.48
				c-0.93-0.78-2.11-1.08-3.46-1.08c-0.91,0-1.4,0.16-1.6,0.38c-0.18,0.16-0.26,0.46-0.26,1.51V521.47z"/>
			<path class="st39" d="M420.34,520.76c-0.12,0.7-0.67,3.48-0.87,4.29h-9.84v-0.76c1.88-0.19,2.02-0.43,2.02-2.65v-10.67
				c0-2.4-0.22-2.54-1.74-2.73v-0.76h6.2c1.9,0,2.69-0.03,2.94-0.05c0.02,0.68,0.1,2.7,0.18,4.13l-0.61,0.13
				c-0.18-0.92-0.38-1.49-0.61-2.05c-0.32-0.89-0.79-1.08-2-1.08h-1.92c-0.63,0-0.67,0.08-0.67,0.86v5.97h2.25
				c1.52,0,1.62-0.41,1.86-2.24h0.63v5.56h-0.63c-0.26-1.94-0.42-2.21-1.88-2.21h-2.23v5.37c0,1.89,0.45,2.05,1.46,2.08h1.88
				c1.24,0,1.44-0.24,1.88-0.95c0.38-0.57,0.81-1.67,1.09-2.49L420.34,520.76z"/>
			<path class="st39" d="M436.99,520.76c-0.12,0.7-0.67,3.48-0.87,4.29h-9.84v-0.76c1.88-0.19,2.02-0.43,2.02-2.65v-10.67
				c0-2.4-0.22-2.54-1.74-2.73v-0.76h6.2c1.9,0,2.69-0.03,2.94-0.05c0.02,0.68,0.1,2.7,0.18,4.13l-0.61,0.13
				c-0.18-0.92-0.38-1.49-0.61-2.05c-0.32-0.89-0.79-1.08-2-1.08h-1.92c-0.63,0-0.67,0.08-0.67,0.86v5.97h2.25
				c1.52,0,1.62-0.41,1.86-2.24h0.63v5.56h-0.63c-0.26-1.94-0.42-2.21-1.88-2.21h-2.23v5.37c0,1.89,0.45,2.05,1.46,2.08h1.88
				c1.24,0,1.44-0.24,1.88-0.95c0.38-0.57,0.81-1.67,1.09-2.49L436.99,520.76z"/>
			<path class="st39" d="M438.41,507.5h5.41v0.76c-1.58,0.19-1.86,0.38-1.86,2.78v4.65c0.4-0.05,0.87-0.49,1.46-1.24
				c1.13-1.43,2.49-3.27,3.42-4.67c0.61-0.92,0.55-1.27-0.32-1.43l-0.57-0.08v-0.76h4.92v0.76c-1.52,0.24-2.04,0.38-3.4,2.24
				c-0.61,0.78-2.19,2.84-3.48,4.54c1.54,2.43,3.79,5.89,4.84,7.37c1.03,1.49,1.3,1.7,2.55,1.89v0.76h-3.24
				c-1.56-2.35-3.2-4.97-5.04-7.83c-0.47-0.76-0.81-0.81-1.13-0.78v5.13c0,2.35,0.18,2.54,1.86,2.73v0.76h-5.41v-0.76
				c1.66-0.19,1.82-0.38,1.82-2.73v-10.53c0-2.43-0.14-2.62-1.82-2.78V507.5z"/>
			<path class="st39" d="M461.8,520.58c-0.12,0.84-0.73,3.65-0.93,4.48h-9.42v-0.76c1.84-0.24,2-0.38,2-2.67v-10.72
				c0-2.3-0.2-2.43-1.82-2.65v-0.76h5.43v0.76c-1.62,0.22-1.84,0.32-1.84,2.65v10.99c0,1.65,0.16,2.03,1.32,2.05
				c0.02,0,1.48,0.03,1.6,0.03c1.03,0,1.34-0.16,1.8-0.84c0.51-0.7,0.93-1.78,1.24-2.78L461.8,520.58z"/>
			<path class="st39" d="M473.65,520.76c-0.12,0.7-0.67,3.48-0.87,4.29h-9.84v-0.76c1.88-0.19,2.02-0.43,2.02-2.65v-10.67
				c0-2.4-0.22-2.54-1.74-2.73v-0.76h6.2c1.9,0,2.69-0.03,2.94-0.05c0.02,0.68,0.1,2.7,0.18,4.13l-0.61,0.13
				c-0.18-0.92-0.38-1.49-0.61-2.05c-0.32-0.89-0.79-1.08-2-1.08h-1.92c-0.63,0-0.67,0.08-0.67,0.86v5.97h2.25
				c1.52,0,1.62-0.41,1.86-2.24h0.63v5.56h-0.63c-0.26-1.94-0.42-2.21-1.88-2.21h-2.23v5.37c0,1.89,0.45,2.05,1.46,2.08h1.88
				c1.24,0,1.44-0.24,1.88-0.95c0.38-0.57,0.81-1.67,1.09-2.49L473.65,520.76z"/>
			<path class="st39" d="M486.35,525.06v-0.76c1.66-0.22,1.72-0.38,1.7-3.27l0.02-11.02c-1.66,4.94-4.33,12.67-5.04,15.04h-0.53
				c-0.69-2.46-2.98-9.88-4.52-14.77c-0.34,9.45-0.36,11.59-0.36,12.1c0.02,1.51,0.53,1.73,1.9,1.92v0.76h-4.8v-0.76
				c1.17-0.16,1.66-0.49,1.82-1.95c0.12-1.19,0.14-2.16,0.67-12.02c0.08-1.4-0.12-1.86-1.9-2.08v-0.76h3.52l4.47,13.69l4.8-13.69
				h3.54v0.76c-1.74,0.27-1.96,0.51-1.92,2.4l0.08,10.37c0.08,2.89,0.14,3.03,1.92,3.27v0.76H486.35z"/>
			<path class="st39" d="M503.89,520.76c-0.12,0.7-0.67,3.48-0.87,4.29h-9.84v-0.76c1.88-0.19,2.02-0.43,2.02-2.65v-10.67
				c0-2.4-0.22-2.54-1.74-2.73v-0.76h6.2c1.9,0,2.69-0.03,2.94-0.05c0.02,0.68,0.1,2.7,0.18,4.13l-0.61,0.13
				c-0.18-0.92-0.38-1.49-0.61-2.05c-0.32-0.89-0.79-1.08-2-1.08h-1.92c-0.63,0-0.67,0.08-0.67,0.86v5.97h2.25
				c1.52,0,1.62-0.41,1.86-2.24h0.63v5.56h-0.63c-0.26-1.94-0.42-2.21-1.88-2.21h-2.23v5.37c0,1.89,0.45,2.05,1.46,2.08h1.88
				c1.24,0,1.44-0.24,1.88-0.95c0.38-0.57,0.81-1.67,1.09-2.49L503.89,520.76z"/>
			<path class="st39" d="M505.31,507.5h5.41v0.76c-1.58,0.19-1.86,0.38-1.86,2.78v4.65c0.4-0.05,0.87-0.49,1.46-1.24
				c1.13-1.43,2.49-3.27,3.42-4.67c0.61-0.92,0.55-1.27-0.32-1.43l-0.57-0.08v-0.76h4.92v0.76c-1.52,0.24-2.04,0.38-3.4,2.24
				c-0.61,0.78-2.19,2.84-3.48,4.54c1.54,2.43,3.79,5.89,4.84,7.37c1.03,1.49,1.3,1.7,2.55,1.89v0.76h-3.24
				c-1.56-2.35-3.2-4.97-5.04-7.83c-0.47-0.76-0.81-0.81-1.13-0.78v5.13c0,2.35,0.18,2.54,1.86,2.73v0.76h-5.41v-0.76
				c1.66-0.19,1.82-0.38,1.82-2.73v-10.53c0-2.43-0.14-2.62-1.82-2.78V507.5z"/>
			<path class="st39" d="M523.78,504.21c0-0.7,0.45-1.35,1.01-1.35c0.55,0,0.97,0.65,0.97,1.35s-0.42,1.38-0.97,1.38
				C524.21,505.59,523.78,504.91,523.78,504.21z M525.65,506.86v18.2h-1.76v-18.2H525.65z"/>
			<path class="st39" d="M535.12,511.61c-0.34-1.78-0.91-3.54-2.81-3.54c-1.58,0-2.13,1.54-2.13,2.94c0,1.86,0.89,2.81,2.57,3.97
				c2.43,1.67,3.48,2.92,3.48,5.48c0,2.84-1.84,5-4.45,5c-1.21,0-2.27-0.46-3.1-0.89c-0.16-0.76-0.4-2.59-0.55-4.05l0.63-0.22
				c0.41,1.81,1.3,4.16,3.4,4.16c1.46,0,2.35-1.35,2.35-3.11c0-2.08-0.83-2.92-2.61-4.21c-2.13-1.54-3.32-2.84-3.32-5.35
				c0-2.4,1.5-4.67,4.17-4.67c1.13,0,2.25,0.41,2.67,0.51c0.08,0.97,0.16,2.05,0.32,3.81L535.12,511.61z"/>
			<path class="st39" d="M548.73,511.74c-0.18-0.86-0.42-1.75-0.65-2.24c-0.32-0.73-0.53-0.92-1.64-0.92h-2.02v13.15
				c0,2.11,0.16,2.4,2.08,2.57v0.76h-5.89v-0.76c1.88-0.16,2.04-0.43,2.04-2.57v-13.15h-1.84c-1.11,0-1.44,0.16-1.78,0.97
				c-0.24,0.54-0.4,1.19-0.67,2.19h-0.61c0.12-1.65,0.24-3.35,0.3-4.86h0.47c0.3,0.65,0.53,0.62,1.09,0.62h8.02
				c0.57,0,0.73-0.11,1.03-0.62h0.49c0,1.27,0.08,3.21,0.18,4.78L548.73,511.74z"/>
			<path class="st39" d="M561.39,520.76c-0.12,0.7-0.67,3.48-0.87,4.29h-9.84v-0.76c1.88-0.19,2.02-0.43,2.02-2.65v-10.67
				c0-2.4-0.22-2.54-1.74-2.73v-0.76h6.2c1.9,0,2.69-0.03,2.94-0.05c0.02,0.68,0.1,2.7,0.18,4.13l-0.61,0.13
				c-0.18-0.92-0.38-1.49-0.61-2.05c-0.32-0.89-0.79-1.08-2-1.08h-1.92c-0.63,0-0.67,0.08-0.67,0.86v5.97h2.25
				c1.52,0,1.62-0.41,1.86-2.24h0.63v5.56h-0.63c-0.26-1.94-0.42-2.21-1.88-2.21h-2.23v5.37c0,1.89,0.45,2.05,1.46,2.08h1.88
				c1.24,0,1.44-0.24,1.88-0.95c0.38-0.57,0.81-1.67,1.09-2.49L561.39,520.76z"/>
			<path class="st39" d="M568.44,507.5c2.86,0,4.66,0.76,5.91,2.35c0.99,1.3,1.72,3.19,1.72,5.78c0,3.16-0.97,5.73-2.53,7.29
				c-1.54,1.54-3.5,2.13-5.99,2.13h-4.74v-0.76c1.74-0.22,1.82-0.41,1.82-2.62v-10.78c0-2.32-0.24-2.43-1.82-2.65v-0.76H568.44z
				 M566.4,521.47c0,2.03,0.65,2.59,2.17,2.59c3.64,0,5.51-3.32,5.51-8.05c0-2.94-0.75-5.19-2.35-6.48
				c-0.93-0.78-2.11-1.08-3.46-1.08c-0.91,0-1.4,0.16-1.6,0.38c-0.18,0.16-0.26,0.46-0.26,1.51V521.47z"/>
			<path class="st39" d="M578.47,504.21c0-0.7,0.45-1.35,1.01-1.35c0.55,0,0.97,0.65,0.97,1.35s-0.42,1.38-0.97,1.38
				C578.9,505.59,578.47,504.91,578.47,504.21z M580.33,506.86v18.2h-1.76v-18.2H580.33z"/>
			<path class="st39" d="M593.8,524.25c-0.79,0.38-2.35,1-4.19,1c-2.07,0-3.77-0.7-5.1-2.4c-1.17-1.51-1.9-3.94-1.9-6.78
				c0.02-5.43,2.82-9.4,7.39-9.4c1.58,0,2.82,0.46,3.4,0.84l-0.43,1.92c-0.73-0.43-1.64-0.78-3.02-0.78c-3.32,0-5.49,2.75-5.49,7.32
				c0,4.62,2.09,7.35,5.26,7.35c1.15,0,1.94-0.22,2.35-0.49v-5.43h-2.77v-1.89h4.5V524.25z M587.77,502.72
				c0.1,0.62,0.45,1.32,1.44,1.32s1.38-0.62,1.48-1.32h1.03c-0.02,1.59-0.79,2.86-2.53,2.86c-1.72,0-2.45-1.24-2.49-2.86H587.77z"/>
			<path class="st39" d="M596.4,504.21c0-0.7,0.45-1.35,1.01-1.35c0.55,0,0.97,0.65,0.97,1.35s-0.42,1.38-0.97,1.38
				C596.82,505.59,596.4,504.91,596.4,504.21z M598.26,506.86v18.2h-1.76v-18.2H598.26z"/>
			<path class="st39" d="M614.7,508.26c-1.3,0.19-1.72,0.46-1.78,1.7c-0.02,0.86-0.06,2-0.06,4.51v10.83h-0.77l-8.67-14.12v6.75
				c0,2.43,0.06,3.65,0.1,4.43c0.04,1.38,0.55,1.78,2,1.95v0.76h-4.92v-0.76c1.26-0.14,1.74-0.54,1.82-1.86
				c0.06-0.86,0.1-2.08,0.1-4.54v-6.89c0-0.76-0.04-1.19-0.41-1.78c-0.38-0.67-0.81-0.84-1.8-0.97v-0.76h3.04l8.59,13.59v-6.62
				c0-2.51-0.04-3.67-0.1-4.48c-0.06-1.22-0.53-1.59-2.15-1.73v-0.76h5V508.26z"/>
			<path class="st39" d="M616.67,504.21c0-0.7,0.45-1.35,1.01-1.35c0.55,0,0.97,0.65,0.97,1.35s-0.42,1.38-0.97,1.38
				C617.1,505.59,616.67,504.91,616.67,504.21z M618.54,506.86v18.2h-1.76v-18.2H618.54z"/>
			<path class="st39" d="M632.14,520.44c-0.14,0.92-0.63,3.46-0.83,4.62h-10.53l-0.18-0.43c2.81-5.19,5.63-10.56,8.48-16.04h-3.99
				c-1.8,0-2.11,0.16-2.53,1c-0.2,0.35-0.51,1.24-0.77,2.27l-0.61-0.03c0.1-1.4,0.34-3.75,0.38-4.94h0.53
				c0.22,0.65,0.47,0.62,1.07,0.62h8.18l0.16,0.43c-2.81,5.27-5.55,10.51-8.34,15.96c0.63,0.05,1.94,0.08,3.32,0.08
				c2.65,0,3.26-0.14,3.83-0.97c0.42-0.57,0.87-1.62,1.23-2.75L632.14,520.44z"/>
			<path class="st39" d="M645.07,515.55c1.94,0.43,3.52,1.67,3.52,4.29c0,1.84-0.77,3.29-1.96,4.16c-1.05,0.78-2.09,1.05-3.5,1.05
				h-4.98v-0.76c1.72-0.22,1.82-0.46,1.82-2.59v-10.83c0-2.24-0.18-2.43-1.82-2.62v-0.76h5.3c1.52,0,2.47,0.35,3.12,0.95
				c0.71,0.65,1.19,1.65,1.19,3.03C647.76,514.01,646.2,515.17,645.07,515.55z M642.74,515.23c2.23,0,3.14-1.19,3.14-3.4
				c0-1.89-0.87-3.35-2.82-3.35c-0.57,0-0.93,0.08-1.13,0.27c-0.16,0.16-0.22,0.46-0.22,1.32v5.16H642.74z M641.71,521.66
				c0,1.95,0.34,2.43,1.78,2.43c1.58,0,3.12-1.13,3.12-3.97c0-2.75-1.46-3.94-3.93-3.94h-0.97V521.66z"/>
			<path class="st39" d="M650.78,504.21c0-0.7,0.45-1.35,1.01-1.35c0.55,0,0.97,0.65,0.97,1.35s-0.42,1.38-0.97,1.38
				C651.21,505.59,650.78,504.91,650.78,504.21z M652.65,506.86v18.2h-1.76v-18.2H652.65z"/>
			<path class="st39" d="M667.1,525.27c-0.26,0-0.49-0.03-0.75-0.05c-1.48-0.13-2.27-0.65-3.16-2.32c-0.75-1.38-1.48-3.08-2.13-4.46
				c-0.41-0.86-0.67-1.03-1.7-1.03h-0.71v4.24c0,2.3,0.22,2.43,1.84,2.65v0.76h-5.41v-0.76c1.68-0.24,1.82-0.35,1.82-2.65v-10.78
				c0-2.29-0.22-2.38-1.82-2.62v-0.76h5.16c1.48,0,2.47,0.24,3.24,0.92c0.83,0.7,1.38,1.92,1.38,3.56c0,2.32-1.11,3.78-2.61,4.65
				c0.36,0.84,1.24,2.65,1.84,3.86c0.75,1.43,1.13,2.11,1.6,2.78c0.55,0.78,1.01,1.08,1.48,1.24L667.1,525.27z M659.63,516.5
				c1.05,0,1.72-0.22,2.23-0.78c0.79-0.78,1.11-1.86,1.11-3.32c0-2.89-1.44-3.94-3-3.94c-0.59,0-0.93,0.11-1.07,0.27
				c-0.18,0.19-0.24,0.46-0.24,1.16v6.62H659.63z"/>
			<path class="st39" d="M672.76,504.21c0-0.7,0.45-1.35,1.01-1.35c0.55,0,0.97,0.65,0.97,1.35s-0.42,1.38-0.97,1.38
				C673.18,505.59,672.76,504.91,672.76,504.21z M674.62,506.86v18.2h-1.76v-18.2H674.62z"/>
			<path class="st39" d="M677.07,507.5h5.41v0.76c-1.58,0.19-1.86,0.38-1.86,2.78v4.65c0.4-0.05,0.87-0.49,1.46-1.24
				c1.13-1.43,2.49-3.27,3.42-4.67c0.61-0.92,0.55-1.27-0.32-1.43l-0.57-0.08v-0.76h4.92v0.76c-1.52,0.24-2.04,0.38-3.4,2.24
				c-0.61,0.78-2.19,2.84-3.48,4.54c1.54,2.43,3.79,5.89,4.84,7.37c1.03,1.49,1.3,1.7,2.55,1.89v0.76h-3.24
				c-1.56-2.35-3.2-4.97-5.04-7.83c-0.47-0.76-0.81-0.81-1.13-0.78v5.13c0,2.35,0.18,2.54,1.86,2.73v0.76h-5.41v-0.76
				c1.66-0.19,1.82-0.38,1.82-2.73v-10.53c0-2.43-0.14-2.62-1.82-2.78V507.5z"/>
			<path class="st39" d="M697.16,507.13c3.46,0,6.56,3.54,6.56,8.91c0,5.81-2.96,9.43-6.68,9.43c-3.89,0-6.72-3.94-6.72-9.02
				C690.32,511.61,692.89,507.13,697.16,507.13z M696.76,508.13c-2.27,0-4.33,2.54-4.33,7.59c0,5.02,2.07,8.72,4.94,8.72
				c2.45,0,4.29-2.43,4.29-7.64C701.66,511.12,699.41,508.13,696.76,508.13z"/>
			<path class="st39" d="M719.58,508.26c-1.29,0.19-1.72,0.46-1.78,1.7c-0.02,0.86-0.06,2-0.06,4.51v10.83h-0.77l-8.67-14.12v6.75
				c0,2.43,0.06,3.65,0.1,4.43c0.04,1.38,0.55,1.78,2,1.95v0.76h-4.92v-0.76c1.26-0.14,1.74-0.54,1.82-1.86
				c0.06-0.86,0.1-2.08,0.1-4.54v-6.89c0-0.76-0.04-1.19-0.41-1.78c-0.38-0.67-0.81-0.84-1.8-0.97v-0.76h3.04l8.59,13.59v-6.62
				c0-2.51-0.04-3.67-0.1-4.48c-0.06-1.22-0.53-1.59-2.15-1.73v-0.76h5V508.26z"/>
			<path class="st39" d="M732.61,507.13c3.46,0,6.56,3.54,6.56,8.91c0,5.81-2.96,9.43-6.68,9.43c-3.89,0-6.72-3.94-6.72-9.02
				C725.77,511.61,728.34,507.13,732.61,507.13z M732.2,508.13c-2.27,0-4.33,2.54-4.33,7.59c0,5.02,2.07,8.72,4.94,8.72
				c2.45,0,4.29-2.43,4.29-7.64C737.11,511.12,734.86,508.13,732.2,508.13z"/>
			<path class="st39" d="M751.2,520.58c-0.12,0.84-0.73,3.65-0.93,4.48h-9.42v-0.76c1.84-0.24,2-0.38,2-2.67v-10.72
				c0-2.3-0.2-2.43-1.82-2.65v-0.76h5.43v0.76c-1.62,0.22-1.84,0.32-1.84,2.65v10.99c0,1.65,0.16,2.03,1.32,2.05
				c0.02,0,1.48,0.03,1.6,0.03c1.03,0,1.34-0.16,1.8-0.84c0.51-0.7,0.93-1.78,1.24-2.78L751.2,520.58z"/>
			<path class="st39" d="M766.37,508.26c-1.28,0.11-1.74,0.54-1.78,1.78c-0.02,0.62-0.06,1.76-0.06,4.24v2.92
				c0,2.75-0.24,4.86-1.42,6.51c-0.95,1.32-2.33,1.73-3.73,1.73c-1.17,0-2.43-0.32-3.32-1.24c-1.21-1.24-1.8-3.11-1.8-6.27v-6.89
				c0-2.43-0.16-2.59-1.78-2.78v-0.76h5.33v0.76c-1.62,0.13-1.78,0.35-1.78,2.78v6.75c0,3.94,1.4,6.1,3.83,6.1
				c2.88,0,3.79-2.38,3.79-6.86v-2.75c0-2.48-0.06-3.51-0.1-4.24c-0.06-1.21-0.53-1.67-2.03-1.78v-0.76h4.86V508.26z"/>
			<path class="st39" d="M779.52,525.27c-0.26,0-0.49-0.03-0.75-0.05c-1.48-0.13-2.27-0.65-3.16-2.32
				c-0.75-1.38-1.48-3.08-2.13-4.46c-0.41-0.86-0.67-1.03-1.7-1.03h-0.71v4.24c0,2.3,0.22,2.43,1.84,2.65v0.76h-5.41v-0.76
				c1.68-0.24,1.82-0.35,1.82-2.65v-10.78c0-2.29-0.22-2.38-1.82-2.62v-0.76h5.16c1.48,0,2.47,0.24,3.24,0.92
				c0.83,0.7,1.38,1.92,1.38,3.56c0,2.32-1.11,3.78-2.61,4.65c0.36,0.84,1.24,2.65,1.84,3.86c0.75,1.43,1.13,2.11,1.6,2.78
				c0.55,0.78,1.01,1.08,1.48,1.24L779.52,525.27z M772.05,516.5c1.05,0,1.72-0.22,2.23-0.78c0.79-0.78,1.11-1.86,1.11-3.32
				c0-2.89-1.44-3.94-3-3.94c-0.59,0-0.93,0.11-1.07,0.27c-0.18,0.19-0.24,0.46-0.24,1.16v6.62H772.05z"/>
			<path class="st39" d="M786.95,511.61c-0.34-1.78-0.91-3.54-2.81-3.54c-1.58,0-2.13,1.54-2.13,2.94c0,1.86,0.89,2.81,2.57,3.97
				c2.43,1.67,3.48,2.92,3.48,5.48c0,2.84-1.84,5-4.45,5c-1.21,0-2.27-0.46-3.1-0.89c-0.16-0.76-0.4-2.59-0.55-4.05l0.63-0.22
				c0.41,1.81,1.3,4.16,3.4,4.16c1.46,0,2.35-1.35,2.35-3.11c0-2.08-0.83-2.92-2.61-4.21c-2.13-1.54-3.32-2.84-3.32-5.35
				c0-2.4,1.5-4.67,4.17-4.67c1.13,0,2.25,0.41,2.67,0.51c0.08,0.97,0.16,2.05,0.32,3.81L786.95,511.61z"/>
			<path class="st39" d="M796.72,525.06v-0.76c1.32-0.22,1.48-0.49,1.19-1.51c-0.26-1.05-0.67-2.4-1.09-4.11h-4.37
				c-0.32,1.22-0.63,2.27-0.91,3.38c-0.45,1.76-0.16,1.97,1.5,2.24v0.76h-4.68v-0.76c1.28-0.22,1.6-0.41,2.31-2.84l4.19-14.18
				l0.65-0.16c1.28,4.62,2.67,9.72,3.95,14.4c0.65,2.35,0.83,2.57,2.27,2.78v0.76H796.72z M794.69,510.66
				c-0.65,2.32-1.34,4.78-1.94,6.91h3.79L794.69,510.66z"/>
			<path class="st39" d="M803.46,525.44c-0.73,0-1.24-0.7-1.24-1.73c0-0.97,0.51-1.73,1.24-1.73c0.73,0,1.28,0.76,1.28,1.73
				C804.74,524.73,804.19,525.44,803.46,525.44z"/>
		</g>
	</g>
</g>
</svg>
