<?xml version="1.0" encoding="utf-8"?>
<!-- Generator: Adobe Illustrator 27.6.1, SVG Export Plug-In . SVG Version: 6.00 Build 0)  -->
<svg version="1.1" id="Layer_1" xmlns="http://www.w3.org/2000/svg" xmlns:xlink="http://www.w3.org/1999/xlink" x="0px" y="0px"
	 viewBox="0 0 841.89 595.28" style="enable-background:new 0 0 841.89 595.28;" xml:space="preserve">
<style type="text/css">
	.st0{fill:#F9F9FA;stroke:#000000;stroke-width:7;stroke-miterlimit:10;}
	.st1{fill:#FFFFFF;stroke:#A5A4A4;stroke-width:16;stroke-miterlimit:10;}
	.st2{fill:#020203;}
	.st3{fill:#FFFFFF;}
	.st4{fill:#020202;}
	.st5{fill:none;stroke:#030403;stroke-width:3;stroke-miterlimit:10;}
	.st6{fill:#FFFFFF;stroke:#070A07;stroke-width:3;stroke-miterlimit:10;}
	.st7{fill:#FFFFFF;stroke:#070A07;stroke-width:0.25;stroke-miterlimit:10;}
	.st8{fill:none;stroke:#0B0E0A;stroke-width:2;stroke-miterlimit:10;}
	.st9{fill:#0B0E0A;stroke:#0B0E0A;stroke-width:0.25;stroke-miterlimit:10;}
	.st10{fill:#040504;}
	.st11{fill:none;stroke:#000000;stroke-width:12;stroke-miterlimit:10;}
	.st12{fill:#090706;}
	.st13{fill:#777777;}
	.st14{fill:none;stroke:#0A0807;stroke-miterlimit:10;}
	.st15{fill:#070605;}
	.st16{fill:none;stroke:#070605;stroke-miterlimit:10;}
	.st17{fill:none;stroke:#070605;stroke-width:10;stroke-miterlimit:10;}
	.st18{fill:none;stroke:#ED1C3D;stroke-width:9;stroke-miterlimit:10;}
	.st19{stroke:#ED1C3D;stroke-width:11;stroke-miterlimit:10;}
	.st20{fill:none;stroke:#000000;stroke-miterlimit:10;}
	.st21{fill:#080808;}
	.st22{fill:#ED1C26;}
	.st23{fill:none;stroke:#000000;stroke-width:4;stroke-miterlimit:10;}
	.st24{fill:none;stroke:#000000;stroke-width:13;stroke-miterlimit:10;}
	.st25{fill:none;stroke:#F4F4F5;stroke-width:3;stroke-miterlimit:10;}
	.st26{fill:none;stroke:#0A0505;stroke-width:19;stroke-miterlimit:10;}
	.st27{fill:none;stroke:#000000;stroke-width:14;stroke-miterlimit:10;}
	.st28{fill:none;stroke:#000000;stroke-width:11;stroke-miterlimit:10;}
	.st29{fill:#A5A4A4;}
	.st30{font-family:'Arial-Black';}
	.st31{font-size:20px;}
	.st32{fill:none;stroke:#000000;stroke-width:20;stroke-miterlimit:10;}
	.st33{fill:#FFFFFF;stroke:#030202;stroke-width:11;stroke-miterlimit:10;}
	.st34{fill:#FFFFFF;stroke:#070505;stroke-width:10;stroke-miterlimit:10;}
	.st35{font-family:'MyriadPro-Regular';}
	.st36{fill:none;stroke:#000000;stroke-width:18;stroke-miterlimit:10;}
	.st37{fill:none;stroke:#000000;stroke-width:7;stroke-miterlimit:10;}
	.st38{fill:none;stroke:#070404;stroke-width:8;stroke-miterlimit:10;}
	.st39{fill:none;stroke:#070404;stroke-width:6;stroke-miterlimit:10;}
	.st40{fill:#070404;}
	.st41{fill:none;stroke:#070404;stroke-width:11;stroke-miterlimit:10;}
	.st42{fill:#ED1940;}
	.st43{fill:none;stroke:#000000;stroke-width:9;stroke-miterlimit:10;}
	.st44{fill:none;stroke:#000000;stroke-width:15;stroke-miterlimit:10;}
</style>
<path class="st1" d="M331.32,381.75H97.34c-6.6,0-12-5.4-12-12V210.84c0-6.6,5.4-12,12-12h233.98c6.6,0,12,5.4,12,12v158.91
	C343.32,376.35,337.92,381.75,331.32,381.75z"/>
<path class="st1" d="M380.92,417.51H146.94c-6.6,0-12-5.4-12-12V246.6c0-6.6,5.4-12,12-12h233.98c6.6,0,12,5.4,12,12v158.91
	C392.92,412.11,387.52,417.51,380.92,417.51z"/>
<line class="st1" x1="137.59" y1="290.29" x2="390.28" y2="290.29"/>
<line class="st1" x1="163.69" y1="375.2" x2="253.09" y2="375.2"/>
<g>
	<circle class="st29" cx="311.08" cy="366.71" r="20.03"/>
	<circle class="st29" cx="342.57" cy="366.71" r="20.03"/>
</g>
<g>
	<text transform="matrix(1 0 0 1 34.2205 42.0584)"><tspan x="0" y="0" class="st30 st31">KREDİ KARTI</tspan><tspan x="0" y="24" class="st30 st31">VE CÜZDAN</tspan></text>
</g>
<text transform="matrix(1 0 0 1 148.5702 158.5854)" class="st35 st31">KREDİ KARTI</text>
<g>
	<path class="st1" d="M754.18,426.55H502.36c-6.6,0-12-5.4-12-12v-201.1c0-6.6,5.4-12,12-12h251.82c6.6,0,12,5.4,12,12v201.1
		C766.18,421.15,760.78,426.55,754.18,426.55z"/>
	<path class="st1" d="M754.18,426.55H502.36c-6.6,0-12-5.4-12-12V251.81c0-6.6,5.4-12,12-12h251.82c6.6,0,12,5.4,12,12v162.75
		C766.18,421.15,760.78,426.55,754.18,426.55z"/>
	<path class="st1" d="M754.18,426.55H502.36c-6.6,0-12-5.4-12-12V291.84c0-6.6,5.4-12,12-12h251.82c6.6,0,12,5.4,12,12v122.71
		C766.18,421.15,760.78,426.55,754.18,426.55z"/>
	<path class="st1" d="M490.82,334.02l68.45-0.84c5.36,0.47,14.1,1.94,23.5,7.01c12.87,6.95,19.88,16.82,22.91,21.73
		c7.46,10.18,19.81,15.38,31.82,13.33c15.46-2.63,22.56-15.92,23.34-17.44c1.01-2.29,2.17-4.29,3.41-6.03
		c12.3-17.34,37.43-17.83,44.06-17.77c19.14,0,38.27,0,57.41,0"/>
	<text transform="matrix(1 0 0 1 591.7753 167.339)" class="st35 st31">CÜZDAN</text>
</g>
<line class="st1" x1="90.76" y1="252.86" x2="128.62" y2="252.86"/>
</svg>
