<?xml version="1.0" encoding="utf-8"?>
<!-- Generator: Adobe Illustrator 27.6.1, SVG Export Plug-In . SVG Version: 6.00 Build 0)  -->
<svg version="1.1" id="Layer_1" xmlns="http://www.w3.org/2000/svg" xmlns:xlink="http://www.w3.org/1999/xlink" x="0px" y="0px"
	 viewBox="0 0 841.89 595.28" style="enable-background:new 0 0 841.89 595.28;" xml:space="preserve">
<style type="text/css">
	.st0{fill:#F9F9FA;stroke:#000000;stroke-width:7;stroke-miterlimit:10;}
	.st1{fill:#FFFFFF;stroke:#A5A4A4;stroke-width:16;stroke-miterlimit:10;}
	.st2{fill:#020203;}
	.st3{fill:#FFFFFF;}
	.st4{fill:#020202;}
	.st5{fill:none;stroke:#030403;stroke-width:3;stroke-miterlimit:10;}
	.st6{fill:#FFFFFF;stroke:#070A07;stroke-width:3;stroke-miterlimit:10;}
	.st7{fill:#FFFFFF;stroke:#070A07;stroke-width:0.25;stroke-miterlimit:10;}
	.st8{fill:none;stroke:#0B0E0A;stroke-width:2;stroke-miterlimit:10;}
	.st9{fill:#0B0E0A;stroke:#0B0E0A;stroke-width:0.25;stroke-miterlimit:10;}
	.st10{fill:#040504;}
	.st11{fill:none;stroke:#000000;stroke-width:12;stroke-miterlimit:10;}
	.st12{fill:#090706;}
	.st13{fill:#777777;}
	.st14{fill:none;stroke:#0A0807;stroke-miterlimit:10;}
	.st15{fill:#070605;}
	.st16{fill:none;stroke:#070605;stroke-miterlimit:10;}
	.st17{fill:none;stroke:#070605;stroke-width:10;stroke-miterlimit:10;}
	.st18{fill:none;stroke:#ED1C3D;stroke-width:9;stroke-miterlimit:10;}
	.st19{stroke:#ED1C3D;stroke-width:11;stroke-miterlimit:10;}
	.st20{fill:none;stroke:#000000;stroke-miterlimit:10;}
	.st21{fill:#080808;}
	.st22{fill:#ED1C26;}
	.st23{fill:none;stroke:#000000;stroke-width:4;stroke-miterlimit:10;}
	.st24{fill:none;stroke:#000000;stroke-width:13;stroke-miterlimit:10;}
	.st25{fill:none;stroke:#F4F4F5;stroke-width:3;stroke-miterlimit:10;}
	.st26{fill:none;stroke:#0A0505;stroke-width:19;stroke-miterlimit:10;}
	.st27{fill:none;stroke:#000000;stroke-width:14;stroke-miterlimit:10;}
	.st28{fill:none;stroke:#000000;stroke-width:11;stroke-miterlimit:10;}
	.st29{fill:#A5A4A4;}
	.st30{fill:none;stroke:#000000;stroke-width:20;stroke-miterlimit:10;}
	.st31{fill:#FFFFFF;stroke:#030202;stroke-width:11;stroke-miterlimit:10;}
	.st32{fill:#FFFFFF;stroke:#070505;stroke-width:10;stroke-miterlimit:10;}
	.st33{fill:none;stroke:#000000;stroke-width:18;stroke-miterlimit:10;}
	.st34{fill:none;stroke:#000000;stroke-width:7;stroke-miterlimit:10;}
	.st35{fill:none;stroke:#070404;stroke-width:8;stroke-miterlimit:10;}
	.st36{fill:none;stroke:#070404;stroke-width:6;stroke-miterlimit:10;}
	.st37{fill:#070404;}
	.st38{fill:none;stroke:#070404;stroke-width:11;stroke-miterlimit:10;}
	.st39{fill:#ED1940;}
	.st40{fill:none;stroke:#000000;stroke-width:9;stroke-miterlimit:10;}
	.st41{fill:none;stroke:#000000;stroke-width:15;stroke-miterlimit:10;}
</style>
<g>
	<polygon class="st35" points="370.52,217.86 474.97,217.86 526.88,280.4 420.94,405.49 317.36,281.65 	"/>
	<line class="st35" x1="317.36" y1="280.78" x2="526.88" y2="280.4"/>
	<path class="st36" d="M379.15,280.4l41.8-58.05c13.12,18.89,26.25,37.78,39.37,56.66c-12.73,39.82-25.46,79.63-38.19,119.45
		L379.15,280.4z"/>
	<path class="st36" d="M353.42,199.56L353.42,199.56c-0.9,0.77-2.26,0.66-3.02-0.24l-27.6-32.25c-0.77-0.9-0.66-2.26,0.24-3.02l0,0
		c0.9-0.77,2.26-0.66,3.02,0.24l27.6,32.25C354.42,197.43,354.31,198.79,353.42,199.56z"/>
	<path class="st36" d="M480.7,199.56L480.7,199.56c0.9,0.77,2.26,0.66,3.02-0.24l27.6-32.25c0.77-0.9,0.66-2.26-0.24-3.02v0
		c-0.9-0.77-2.26-0.66-3.02,0.24l-27.6,32.25C479.7,197.43,479.8,198.79,480.7,199.56z"/>
	<path class="st37" d="M396.22,199.56L396.22,199.56c-0.9,0.77-2.26,0.66-3.02-0.24l-27.6-32.25c-0.77-0.9-0.66-2.26,0.24-3.02v0
		c0.9-0.77,2.26-0.66,3.02,0.24l27.6,32.25C397.22,197.43,397.11,198.79,396.22,199.56z"/>
	<path class="st37" d="M445.12,199.56L445.12,199.56c0.9,0.77,2.26,0.66,3.02-0.24l27.6-32.25c0.77-0.9,0.66-2.26-0.24-3.02v0
		c-0.9-0.77-2.26-0.66-3.02,0.24l-27.6,32.25C444.12,197.43,444.22,198.79,445.12,199.56z"/>
</g>
<g>
	<g>
		<g>
			<path class="st39" d="M63.49,511.31c-0.18-0.76-0.34-1.4-0.63-2c-0.38-0.92-0.69-1.13-1.82-1.13h-2.17
				c-0.59,0-0.65,0.08-0.65,0.86v6.24h2.51c1.46,0,1.56-0.32,1.86-2.21h0.61v5.65h-0.63c-0.26-1.89-0.41-2.32-1.84-2.32h-2.51v4.83
				c0,2.35,0.2,2.46,2.04,2.67v0.76h-5.63v-0.76c1.64-0.16,1.82-0.35,1.82-2.67v-10.7c0-2.35-0.2-2.46-1.82-2.67v-0.76h6.42
				c1.82,0,2.51-0.03,2.85-0.05c0.02,0.97,0.1,2.86,0.2,4.16L63.49,511.31z"/>
			<path class="st39" d="M72.59,524.65v-0.76c1.32-0.22,1.48-0.49,1.19-1.51c-0.26-1.05-0.67-2.4-1.09-4.11h-4.37
				c-0.32,1.22-0.63,2.27-0.91,3.38c-0.45,1.76-0.16,1.97,1.5,2.24v0.76h-4.68v-0.76c1.28-0.22,1.6-0.41,2.31-2.84l4.19-14.18
				l0.65-0.16c1.28,4.62,2.67,9.72,3.95,14.4c0.65,2.35,0.83,2.57,2.27,2.78v0.76H72.59z M70.56,510.26
				c-0.65,2.32-1.34,4.78-1.94,6.91h3.79L70.56,510.26z"/>
			<path class="st39" d="M90.47,507.85c-1.36,0.24-1.7,0.49-2.43,2.92c-0.55,1.78-3.34,10.83-4.33,14.18h-0.67
				c-1.19-4.35-2.94-10.67-4.09-14.67c-0.57-2-0.91-2.27-2.15-2.43v-0.76h5.14v0.76c-1.5,0.22-1.58,0.54-1.3,1.54
				c0.51,1.97,1.98,7.35,3.26,11.83c1.07-3.48,2.41-7.89,3.36-11.29c0.45-1.57,0.2-1.81-1.46-2.08v-0.76h4.66V507.85z"/>
			<path class="st39" d="M97.54,506.72c3.46,0,6.56,3.54,6.56,8.91c0,5.81-2.96,9.43-6.68,9.43c-3.89,0-6.72-3.94-6.72-9.02
				C90.7,511.2,93.27,506.72,97.54,506.72z M97.14,507.72c-2.27,0-4.33,2.54-4.33,7.59c0,5.02,2.07,8.72,4.94,8.72
				c2.45,0,4.29-2.43,4.29-7.64C102.04,510.72,99.79,507.72,97.14,507.72z"/>
			<path class="st39" d="M117.98,524.87c-0.26,0-0.49-0.03-0.75-0.05c-1.48-0.13-2.27-0.65-3.16-2.32
				c-0.75-1.38-1.48-3.08-2.13-4.46c-0.4-0.86-0.67-1.03-1.7-1.03h-0.71v4.24c0,2.3,0.22,2.43,1.84,2.65v0.76h-5.41v-0.76
				c1.68-0.24,1.82-0.35,1.82-2.65v-10.78c0-2.29-0.22-2.38-1.82-2.62v-0.76h5.16c1.48,0,2.47,0.24,3.24,0.92
				c0.83,0.7,1.38,1.92,1.38,3.56c0,2.32-1.11,3.78-2.61,4.65c0.36,0.84,1.24,2.65,1.84,3.86c0.75,1.43,1.13,2.11,1.6,2.78
				c0.55,0.78,1.01,1.08,1.48,1.24L117.98,524.87z M110.5,516.09c1.05,0,1.72-0.22,2.23-0.78c0.79-0.78,1.11-1.86,1.11-3.32
				c0-2.89-1.44-3.94-3-3.94c-0.59,0-0.93,0.11-1.07,0.27c-0.18,0.19-0.24,0.46-0.24,1.16v6.62H110.5z"/>
			<path class="st39" d="M118.91,503.8c0-0.7,0.45-1.35,1.01-1.35c0.55,0,0.97,0.65,0.97,1.35s-0.43,1.38-0.97,1.38
				C119.34,505.18,118.91,504.5,118.91,503.8z M120.77,506.45v18.2h-1.76v-18.2H120.77z"/>
		</g>
	</g>
</g>
</svg>
