<?xml version="1.0" encoding="utf-8"?>
<!-- Generator: Adobe Illustrator 27.6.1, SVG Export Plug-In . SVG Version: 6.00 Build 0)  -->
<svg version="1.1" id="Layer_1" xmlns="http://www.w3.org/2000/svg" xmlns:xlink="http://www.w3.org/1999/xlink" x="0px" y="0px"
	 viewBox="0 0 841.89 595.28" style="enable-background:new 0 0 841.89 595.28;" xml:space="preserve">
<style type="text/css">
	.st0{fill:#F9F9FA;stroke:#000000;stroke-width:7;stroke-miterlimit:10;}
	.st1{fill:#FFFFFF;stroke:#A5A4A4;stroke-width:16;stroke-miterlimit:10;}
	.st2{fill:#020203;}
	.st3{fill:#FFFFFF;}
	.st4{fill:#020202;}
	.st5{fill:none;stroke:#030403;stroke-width:3;stroke-miterlimit:10;}
	.st6{fill:#FFFFFF;stroke:#070A07;stroke-width:3;stroke-miterlimit:10;}
	.st7{fill:#FFFFFF;stroke:#070A07;stroke-width:0.25;stroke-miterlimit:10;}
	.st8{fill:none;stroke:#0B0E0A;stroke-width:2;stroke-miterlimit:10;}
	.st9{fill:#0B0E0A;stroke:#0B0E0A;stroke-width:0.25;stroke-miterlimit:10;}
	.st10{fill:#040504;}
	.st11{fill:none;stroke:#000000;stroke-width:12;stroke-miterlimit:10;}
	.st12{fill:#090706;}
	.st13{fill:#777777;}
	.st14{fill:none;stroke:#0A0807;stroke-miterlimit:10;}
	.st15{fill:#070605;}
	.st16{fill:none;stroke:#070605;stroke-miterlimit:10;}
	.st17{fill:none;stroke:#070605;stroke-width:10;stroke-miterlimit:10;}
	.st18{fill:none;stroke:#ED1C3D;stroke-width:9;stroke-miterlimit:10;}
	.st19{stroke:#ED1C3D;stroke-width:11;stroke-miterlimit:10;}
	.st20{fill:none;stroke:#000000;stroke-miterlimit:10;}
	.st21{fill:#080808;}
	.st22{fill:#ED1C26;}
	.st23{fill:none;stroke:#000000;stroke-width:4;stroke-miterlimit:10;}
	.st24{fill:none;stroke:#000000;stroke-width:13;stroke-miterlimit:10;}
	.st25{fill:none;stroke:#F4F4F5;stroke-width:3;stroke-miterlimit:10;}
	.st26{fill:none;stroke:#0A0505;stroke-width:19;stroke-miterlimit:10;}
	.st27{fill:none;stroke:#000000;stroke-width:14;stroke-miterlimit:10;}
	.st28{fill:none;stroke:#000000;stroke-width:11;stroke-miterlimit:10;}
	.st29{font-family:'Arial-Black';}
	.st30{font-size:20px;}
	.st31{fill:#A5A4A4;}
	.st32{fill:none;stroke:#000000;stroke-width:20;stroke-miterlimit:10;}
	.st33{fill:#FFFFFF;stroke:#030202;stroke-width:11;stroke-miterlimit:10;}
	.st34{fill:#FFFFFF;stroke:#070505;stroke-width:10;stroke-miterlimit:10;}
	.st35{fill:none;stroke:#000000;stroke-width:18;stroke-miterlimit:10;}
	.st36{fill:none;stroke:#000000;stroke-width:7;stroke-miterlimit:10;}
	.st37{fill:none;stroke:#070404;stroke-width:8;stroke-miterlimit:10;}
	.st38{fill:none;stroke:#070404;stroke-width:6;stroke-miterlimit:10;}
	.st39{fill:#070404;}
	.st40{fill:none;stroke:#070404;stroke-width:11;stroke-miterlimit:10;}
	.st41{fill:#ED1940;}
	.st42{fill:none;stroke:#000000;stroke-width:9;stroke-miterlimit:10;}
	.st43{fill:none;stroke:#000000;stroke-width:15;stroke-miterlimit:10;}
</style>
<path class="st28" d="M335.38,265.04H174.76c-6.6,0-12-5.4-12-12v-117.6c0-6.6,5.4-12,12-12h160.62c6.6,0,12,5.4,12,12v117.6
	C347.38,259.64,341.98,265.04,335.38,265.04z"/>
<polygon points="185.54,243.59 185.54,225.66 217.06,193.72 233.13,210.83 283.73,159.53 324.6,201.56 324.6,243.59 "/>
<circle cx="201.8" cy="161.61" r="16.25"/>
<g>
	<text transform="matrix(1 0 0 1 24.7796 42.0584)" class="st29 st30">FOTOĞRAF, YÜKLEME, ALBÜM V</text>
</g>
<path class="st28" d="M692.7,265.04H532.08c-6.6,0-12-5.4-12-12v-117.6c0-6.6,5.4-12,12-12H692.7c6.6,0,12,5.4,12,12v117.6
	C704.7,259.64,699.3,265.04,692.7,265.04z"/>
<polygon points="542.86,243.59 542.86,225.66 574.38,193.72 590.45,210.83 641.05,159.53 681.92,201.56 681.92,243.59 "/>
<circle cx="559.12" cy="161.61" r="16.25"/>
<path class="st3" d="M733.22,280.85h-59.03c-6.6,0-12-5.4-12-12v-54.28c0-6.6,5.4-12,12-12h59.03c6.6,0,12,5.4,12,12v54.28
	C745.22,275.45,739.82,280.85,733.22,280.85z"/>
<g>
	<path d="M704.25,279.85h-1.28c-2.82,0-5.12-2.31-5.12-5.12v-60.23c0-2.82,2.31-5.12,5.12-5.12h1.28c2.82,0,5.12,2.31,5.12,5.12
		v60.23C709.37,277.54,707.07,279.85,704.25,279.85z"/>
	<path d="M668.38,245.25v-1.28c0-2.82,2.31-5.12,5.12-5.12h60.23c2.82,0,5.12,2.31,5.12,5.12v1.28c0,2.82-2.31,5.12-5.12,5.12H673.5
		C670.68,250.37,668.38,248.06,668.38,245.25z"/>
</g>
<path class="st34" d="M492.44,459.64l-155.76,39.21c-6.4,1.61-12.96-2.31-14.57-8.71L293.4,376.09c-1.61-6.4,2.31-12.96,8.71-14.57
	l155.76-39.21c6.4-1.61,12.96,2.31,14.57,8.71l28.71,114.05C502.76,451.47,498.84,458.03,492.44,459.64z"/>
<path class="st34" d="M530.86,516.09H370.24c-6.6,0-12-5.4-12-12v-117.6c0-6.6,5.4-12,12-12h160.62c6.6,0,12,5.4,12,12v117.6
	C542.86,510.69,537.46,516.09,530.86,516.09z"/>
<polygon points="381.02,494.63 381.02,476.71 412.54,444.76 428.61,461.88 479.21,410.58 520.08,452.61 520.08,494.63 "/>
<circle cx="397.28" cy="412.66" r="16.25"/>
</svg>
