<?xml version="1.0" encoding="utf-8"?>
<!-- Generator: Adobe Illustrator 27.6.1, SVG Export Plug-In . SVG Version: 6.00 Build 0)  -->
<svg version="1.1" id="Layer_1" xmlns="http://www.w3.org/2000/svg" xmlns:xlink="http://www.w3.org/1999/xlink" x="0px" y="0px"
	 viewBox="0 0 841.89 595.28" style="enable-background:new 0 0 841.89 595.28;" xml:space="preserve">
<style type="text/css">
	.st0{fill:#F9F9FA;stroke:#000000;stroke-width:7;stroke-miterlimit:10;}
	.st1{fill:#FFFFFF;stroke:#A5A4A4;stroke-width:16;stroke-miterlimit:10;}
	.st2{fill:#020203;}
	.st3{fill:#FFFFFF;}
	.st4{fill:#020202;}
	.st5{fill:none;stroke:#030403;stroke-width:3;stroke-miterlimit:10;}
	.st6{fill:#FFFFFF;stroke:#070A07;stroke-width:3;stroke-miterlimit:10;}
	.st7{fill:#FFFFFF;stroke:#070A07;stroke-width:0.25;stroke-miterlimit:10;}
	.st8{fill:none;stroke:#0B0E0A;stroke-width:2;stroke-miterlimit:10;}
	.st9{fill:#0B0E0A;stroke:#0B0E0A;stroke-width:0.25;stroke-miterlimit:10;}
	.st10{fill:#040504;}
	.st11{fill:none;stroke:#000000;stroke-width:12;stroke-miterlimit:10;}
	.st12{fill:#090706;}
	.st13{fill:#777777;}
	.st14{fill:none;stroke:#0A0807;stroke-miterlimit:10;}
	.st15{fill:#070605;}
	.st16{fill:none;stroke:#070605;stroke-miterlimit:10;}
	.st17{fill:none;stroke:#070605;stroke-width:10;stroke-miterlimit:10;}
	.st18{fill:none;stroke:#ED1C3D;stroke-width:9;stroke-miterlimit:10;}
	.st19{stroke:#ED1C3D;stroke-width:11;stroke-miterlimit:10;}
	.st20{fill:none;stroke:#000000;stroke-miterlimit:10;}
	.st21{fill:#080808;}
	.st22{fill:#ED1C26;}
	.st23{fill:none;stroke:#000000;stroke-width:4;stroke-miterlimit:10;}
	.st24{fill:none;stroke:#000000;stroke-width:13;stroke-miterlimit:10;}
	.st25{fill:none;stroke:#F4F4F5;stroke-width:3;stroke-miterlimit:10;}
	.st26{fill:none;stroke:#0A0505;stroke-width:19;stroke-miterlimit:10;}
	.st27{fill:none;stroke:#000000;stroke-width:14;stroke-miterlimit:10;}
	.st28{fill:none;stroke:#000000;stroke-width:11;stroke-miterlimit:10;}
	.st29{fill:#A5A4A4;}
	.st30{fill:none;stroke:#000000;stroke-width:20;stroke-miterlimit:10;}
	.st31{fill:#FFFFFF;stroke:#030202;stroke-width:11;stroke-miterlimit:10;}
	.st32{fill:#FFFFFF;stroke:#070505;stroke-width:10;stroke-miterlimit:10;}
	.st33{fill:none;stroke:#000000;stroke-width:18;stroke-miterlimit:10;}
	.st34{fill:none;stroke:#000000;stroke-width:7;stroke-miterlimit:10;}
	.st35{fill:none;stroke:#070404;stroke-width:8;stroke-miterlimit:10;}
	.st36{fill:none;stroke:#070404;stroke-width:6;stroke-miterlimit:10;}
	.st37{fill:#070404;}
	.st38{fill:none;stroke:#070404;stroke-width:11;stroke-miterlimit:10;}
	.st39{font-family:'Arial-Black';}
	.st40{font-size:20px;}
	.st41{fill:#ED1940;}
	.st42{fill:none;stroke:#000000;stroke-width:9;stroke-miterlimit:10;}
	.st43{fill:none;stroke:#000000;stroke-width:15;stroke-miterlimit:10;}
</style>
<text transform="matrix(1 0 0 1 35.74 51.201)" class="st39 st40">BEĞENME</text>
<g>
	<g>
		<path class="st41" d="M60.08,470.21c-0.18-0.56-0.34-1.04-0.62-1.48c-0.38-0.68-0.68-0.84-1.8-0.84h-2.14
			c-0.58,0-0.64,0.06-0.64,0.64v4.62h2.48c1.44,0,1.54-0.24,1.84-1.64h0.6v4.18h-0.62c-0.26-1.4-0.4-1.72-1.82-1.72h-2.48v3.58
			c0,1.74,0.2,1.82,2.02,1.98v0.56h-5.56v-0.56c1.62-0.12,1.8-0.26,1.8-1.98v-7.92c0-1.74-0.2-1.82-1.8-1.98v-0.56h6.34
			c1.8,0,2.48-0.02,2.82-0.04c0.02,0.72,0.1,2.12,0.2,3.08L60.08,470.21z"/>
		<path class="st41" d="M69.1,466.81c3.42,0,6.48,2.62,6.48,6.6c0,4.3-2.92,6.98-6.6,6.98c-3.84,0-6.64-2.92-6.64-6.68
			C62.33,470.13,64.87,466.81,69.1,466.81z M68.69,467.55c-2.24,0-4.28,1.88-4.28,5.62c0,3.72,2.04,6.46,4.88,6.46
			c2.42,0,4.24-1.8,4.24-5.66C73.54,469.77,71.32,467.55,68.69,467.55z"/>
		<path class="st41" d="M87.96,470.23c-0.18-0.64-0.42-1.3-0.64-1.66c-0.32-0.54-0.52-0.68-1.62-0.68h-2v9.74
			c0,1.56,0.16,1.78,2.06,1.9v0.56h-5.82v-0.56c1.86-0.12,2.02-0.32,2.02-1.9v-9.74h-1.82c-1.1,0-1.42,0.12-1.76,0.72
			c-0.24,0.4-0.4,0.88-0.66,1.62h-0.6c0.12-1.22,0.24-2.48,0.3-3.6h0.46c0.3,0.48,0.52,0.46,1.08,0.46h7.92
			c0.56,0,0.72-0.08,1.02-0.46h0.48c0,0.94,0.08,2.38,0.18,3.54L87.96,470.23z"/>
		<path class="st41" d="M96.86,466.81c3.42,0,6.48,2.62,6.48,6.6c0,4.3-2.92,6.98-6.6,6.98c-3.84,0-6.64-2.92-6.64-6.68
			C90.09,470.13,92.63,466.81,96.86,466.81z M96.45,467.55c-2.24,0-4.28,1.88-4.28,5.62c0,3.72,2.04,6.46,4.88,6.46
			c2.42,0,4.24-1.8,4.24-5.66C101.3,469.77,99.08,467.55,96.45,467.55z"/>
		<path class="st41" d="M112.94,474.9v-2.98h6.84v6.1c-1.31,0.89-2.47,1.5-3.47,1.82s-2.2,0.48-3.58,0.48
			c-1.7,0-3.08-0.29-4.16-0.87s-1.9-1.44-2.49-2.59s-0.88-2.46-0.88-3.95c0-1.56,0.32-2.92,0.97-4.08s1.59-2.03,2.83-2.63
			c0.97-0.46,2.28-0.69,3.92-0.69c1.58,0,2.77,0.14,3.55,0.43s1.44,0.73,1.95,1.33s0.91,1.37,1.17,2.29l-4.27,0.76
			c-0.18-0.54-0.47-0.95-0.89-1.24s-0.96-0.43-1.61-0.43c-0.97,0-1.74,0.34-2.32,1.01s-0.86,1.74-0.86,3.2
			c0,1.55,0.29,2.66,0.87,3.32s1.39,1,2.44,1c0.5,0,0.97-0.07,1.42-0.21s0.96-0.39,1.54-0.73v-1.35H112.94z M114.32,461.98h1.61
			c-0.04,0.62-0.19,1.14-0.44,1.56s-0.64,0.76-1.15,1.01s-1.07,0.38-1.67,0.38c-0.99,0-1.78-0.26-2.37-0.78s-0.94-1.24-1.04-2.17
			h1.68c0.13,0.38,0.32,0.65,0.56,0.81s0.6,0.24,1.08,0.24c0.57,0,0.97-0.08,1.22-0.24S114.22,462.36,114.32,461.98z"/>
		<path class="st41" d="M133.7,480.25c-0.26,0-0.48-0.02-0.74-0.04c-1.46-0.1-2.24-0.48-3.12-1.72c-0.74-1.02-1.46-2.28-2.1-3.3
			c-0.4-0.64-0.66-0.76-1.68-0.76h-0.7v3.14c0,1.7,0.22,1.8,1.82,1.96v0.56h-5.34v-0.56c1.66-0.18,1.8-0.26,1.8-1.96v-7.98
			c0-1.7-0.22-1.76-1.8-1.94v-0.56h5.1c1.46,0,2.44,0.18,3.2,0.68c0.82,0.52,1.36,1.42,1.36,2.64c0,1.72-1.1,2.8-2.58,3.44
			c0.36,0.62,1.22,1.96,1.82,2.86c0.74,1.06,1.12,1.56,1.58,2.06c0.54,0.58,1,0.8,1.46,0.92L133.7,480.25z M126.32,473.75
			c1.04,0,1.7-0.16,2.2-0.58c0.78-0.58,1.1-1.38,1.1-2.46c0-2.14-1.42-2.92-2.96-2.92c-0.58,0-0.92,0.08-1.06,0.2
			c-0.18,0.14-0.24,0.34-0.24,0.86v4.9H126.32z"/>
		<path class="st41" d="M140.84,480.09v-0.56c1.3-0.16,1.46-0.36,1.18-1.12c-0.26-0.78-0.66-1.78-1.08-3.04h-4.32
			c-0.32,0.9-0.62,1.68-0.9,2.5c-0.44,1.3-0.16,1.46,1.48,1.66v0.56h-4.62v-0.56c1.26-0.16,1.58-0.3,2.28-2.1l4.14-10.5l0.64-0.12
			c1.26,3.42,2.64,7.2,3.9,10.66c0.64,1.74,0.82,1.9,2.24,2.06v0.56H140.84z M138.84,469.43c-0.64,1.72-1.32,3.54-1.92,5.12h3.74
			L138.84,469.43z"/>
		<path class="st41" d="M155.02,470.21c-0.18-0.56-0.34-1.04-0.62-1.48c-0.38-0.68-0.68-0.84-1.8-0.84h-2.14
			c-0.58,0-0.64,0.06-0.64,0.64v4.62h2.48c1.44,0,1.54-0.24,1.84-1.64h0.6v4.18h-0.62c-0.26-1.4-0.4-1.72-1.82-1.72h-2.48v3.58
			c0,1.74,0.2,1.82,2.02,1.98v0.56h-5.56v-0.56c1.62-0.12,1.8-0.26,1.8-1.98v-7.92c0-1.74-0.2-1.82-1.8-1.98v-0.56h6.34
			c1.8,0,2.48-0.02,2.82-0.04c0.02,0.72,0.1,2.12,0.2,3.08L155.02,470.21z"/>
		<path class="st41" d="M167.3,476.77c-0.12,0.62-0.72,2.7-0.92,3.32h-9.3v-0.56c1.82-0.18,1.98-0.28,1.98-1.98v-7.94
			c0-1.7-0.2-1.8-1.8-1.96v-0.56h5.36v0.56c-1.6,0.16-1.82,0.24-1.82,1.96v8.14c0,1.22,0.16,1.5,1.3,1.52
			c0.02,0,1.46,0.02,1.58,0.02c1.02,0,1.32-0.12,1.78-0.62c0.5-0.52,0.92-1.32,1.22-2.06L167.3,476.77z"/>
		<path class="st41" d="M175.36,480.09v-0.56c1.3-0.16,1.46-0.36,1.18-1.12c-0.26-0.78-0.66-1.78-1.08-3.04h-4.32
			c-0.32,0.9-0.62,1.68-0.9,2.5c-0.44,1.3-0.16,1.46,1.48,1.66v0.56h-4.62v-0.56c1.26-0.16,1.58-0.3,2.28-2.1l4.14-10.5l0.64-0.12
			c1.26,3.42,2.64,7.2,3.9,10.66c0.64,1.74,0.82,1.9,2.24,2.06v0.56H175.36z M173.36,469.43c-0.64,1.72-1.32,3.54-1.92,5.12h3.74
			L173.36,469.43z"/>
		<path class="st41" d="M192.66,480.25c-0.26,0-0.48-0.02-0.74-0.04c-1.46-0.1-2.24-0.48-3.12-1.72c-0.74-1.02-1.46-2.28-2.1-3.3
			c-0.4-0.64-0.66-0.76-1.68-0.76h-0.7v3.14c0,1.7,0.22,1.8,1.82,1.96v0.56h-5.34v-0.56c1.66-0.18,1.8-0.26,1.8-1.96v-7.98
			c0-1.7-0.22-1.76-1.8-1.94v-0.56h5.1c1.46,0,2.44,0.18,3.2,0.68c0.82,0.52,1.36,1.42,1.36,2.64c0,1.72-1.1,2.8-2.58,3.44
			c0.36,0.62,1.22,1.96,1.82,2.86c0.74,1.06,1.12,1.56,1.58,2.06c0.54,0.58,1,0.8,1.46,0.92L192.66,480.25z M185.27,473.75
			c1.04,0,1.7-0.16,2.2-0.58c0.78-0.58,1.1-1.38,1.1-2.46c0-2.14-1.42-2.92-2.96-2.92c-0.58,0-0.92,0.08-1.06,0.2
			c-0.18,0.14-0.24,0.34-0.24,0.86v4.9H185.27z"/>
		<path class="st41" d="M193.05,480.09v-0.56c1.64-0.18,1.8-0.26,1.8-1.96v-7.94c0-1.72-0.16-1.8-1.8-1.98v-0.56h5.36v0.56
			c-1.66,0.18-1.82,0.26-1.82,1.98v7.94c0,1.72,0.16,1.78,1.82,1.96v0.56H193.05z"/>
		<path class="st41" d="M214.02,467.65c-1.28,0.14-1.7,0.34-1.76,1.26c-0.02,0.64-0.06,1.48-0.06,3.34v8.02h-0.76l-8.56-10.46v5
			c0,1.8,0.06,2.7,0.1,3.28c0.04,1.02,0.54,1.32,1.98,1.44v0.56h-4.86v-0.56c1.24-0.1,1.72-0.4,1.8-1.38
			c0.06-0.64,0.1-1.54,0.1-3.36v-5.1c0-0.56-0.04-0.88-0.4-1.32c-0.38-0.5-0.8-0.62-1.78-0.72v-0.56h3l8.48,10.06v-4.9
			c0-1.86-0.04-2.72-0.1-3.32c-0.06-0.9-0.52-1.18-2.12-1.28v-0.56h4.94V467.65z"/>
		<path class="st41" d="M220.09,467.09h5.34v0.56c-1.56,0.14-1.84,0.28-1.84,2.06v3.44c0.4-0.04,0.86-0.36,1.44-0.92
			c1.12-1.06,2.46-2.42,3.38-3.46c0.6-0.68,0.54-0.94-0.32-1.06l-0.56-0.06v-0.56h4.86v0.56c-1.5,0.18-2.02,0.28-3.36,1.66
			c-0.6,0.58-2.16,2.1-3.44,3.36c1.52,1.8,3.74,4.36,4.78,5.46c1.02,1.1,1.28,1.26,2.52,1.4v0.56h-3.2
			c-1.54-1.74-3.16-3.68-4.98-5.8c-0.46-0.56-0.8-0.6-1.12-0.58v3.8c0,1.74,0.18,1.88,1.84,2.02v0.56h-5.34v-0.56
			c1.64-0.14,1.8-0.28,1.8-2.02v-7.8c0-1.8-0.14-1.94-1.8-2.06V467.09z"/>
		<path class="st41" d="M243.53,476.91c-0.12,0.52-0.66,2.58-0.86,3.18h-9.72v-0.56c1.86-0.14,2-0.32,2-1.96v-7.9
			c0-1.78-0.22-1.88-1.72-2.02v-0.56h6.12c1.88,0,2.66-0.02,2.9-0.04c0.02,0.5,0.1,2,0.18,3.06l-0.6,0.1
			c-0.18-0.68-0.38-1.1-0.6-1.52c-0.32-0.66-0.78-0.8-1.98-0.8h-1.9c-0.62,0-0.66,0.06-0.66,0.64v4.42h2.22c1.5,0,1.6-0.3,1.84-1.66
			h0.62v4.12h-0.62c-0.26-1.44-0.42-1.64-1.86-1.64h-2.2v3.98c0,1.4,0.44,1.52,1.44,1.54h1.86c1.22,0,1.42-0.18,1.86-0.7
			c0.38-0.42,0.8-1.24,1.08-1.84L243.53,476.91z"/>
		<path class="st41" d="M258.75,467.65c-1.28,0.14-1.7,0.34-1.76,1.26c-0.02,0.64-0.06,1.48-0.06,3.34v8.02h-0.76l-8.56-10.46v5
			c0,1.8,0.06,2.7,0.1,3.28c0.04,1.02,0.54,1.32,1.98,1.44v0.56h-4.86v-0.56c1.24-0.1,1.72-0.4,1.8-1.38
			c0.06-0.64,0.1-1.54,0.1-3.36v-5.1c0-0.56-0.04-0.88-0.4-1.32c-0.38-0.5-0.8-0.62-1.78-0.72v-0.56h3l8.48,10.06v-4.9
			c0-1.86-0.04-2.72-0.1-3.32c-0.06-0.9-0.52-1.18-2.12-1.28v-0.56h4.94V467.65z"/>
		<path class="st41" d="M266.91,480.09v-0.56c1.3-0.16,1.46-0.36,1.18-1.12c-0.26-0.78-0.66-1.78-1.08-3.04h-4.32
			c-0.32,0.9-0.62,1.68-0.9,2.5c-0.44,1.3-0.16,1.46,1.48,1.66v0.56h-4.62v-0.56c1.26-0.16,1.58-0.3,2.28-2.1l4.14-10.5l0.64-0.12
			c1.26,3.42,2.64,7.2,3.9,10.66c0.64,1.74,0.82,1.9,2.24,2.06v0.56H266.91z M264.91,469.43c-0.64,1.72-1.32,3.54-1.92,5.12h3.74
			L264.91,469.43z"/>
		<path class="st41" d="M284.21,480.25c-0.26,0-0.48-0.02-0.74-0.04c-1.46-0.1-2.24-0.48-3.12-1.72c-0.74-1.02-1.46-2.28-2.1-3.3
			c-0.4-0.64-0.66-0.76-1.68-0.76h-0.7v3.14c0,1.7,0.22,1.8,1.82,1.96v0.56h-5.34v-0.56c1.66-0.18,1.8-0.26,1.8-1.96v-7.98
			c0-1.7-0.22-1.76-1.8-1.94v-0.56h5.1c1.46,0,2.44,0.18,3.2,0.68c0.82,0.52,1.36,1.42,1.36,2.64c0,1.72-1.1,2.8-2.58,3.44
			c0.36,0.62,1.22,1.96,1.82,2.86c0.74,1.06,1.12,1.56,1.58,2.06c0.54,0.58,1,0.8,1.46,0.92L284.21,480.25z M276.83,473.75
			c1.04,0,1.7-0.16,2.2-0.58c0.78-0.58,1.1-1.38,1.1-2.46c0-2.14-1.42-2.92-2.96-2.92c-0.58,0-0.92,0.08-1.06,0.2
			c-0.18,0.14-0.24,0.34-0.24,0.86v4.9H276.83z"/>
		<path class="st41" d="M284.61,480.09v-0.56c1.64-0.18,1.8-0.26,1.8-1.96v-7.94c0-1.72-0.16-1.8-1.8-1.98v-0.56h5.36v0.56
			c-1.66,0.18-1.82,0.26-1.82,1.98v7.94c0,1.72,0.16,1.78,1.82,1.96v0.56H284.61z"/>
		<path class="st41" d="M305.57,467.65c-1.28,0.14-1.7,0.34-1.76,1.26c-0.02,0.64-0.06,1.48-0.06,3.34v8.02h-0.76l-8.56-10.46v5
			c0,1.8,0.06,2.7,0.1,3.28c0.04,1.02,0.54,1.32,1.98,1.44v0.56h-4.86v-0.56c1.24-0.1,1.72-0.4,1.8-1.38
			c0.06-0.64,0.1-1.54,0.1-3.36v-5.1c0-0.56-0.04-0.88-0.4-1.32c-0.38-0.5-0.8-0.62-1.78-0.72v-0.56h3l8.48,10.06v-4.9
			c0-1.86-0.04-2.72-0.1-3.32c-0.06-0.9-0.52-1.18-2.12-1.28v-0.56h4.94V467.65z"/>
		<path class="st41" d="M312.55,467.09c2.82,0,4.6,0.56,5.84,1.74c0.98,0.96,1.7,2.36,1.7,4.28c0,2.34-0.96,4.24-2.5,5.4
			c-1.52,1.14-3.46,1.58-5.92,1.58h-4.68v-0.56c1.72-0.16,1.8-0.3,1.8-1.94v-7.98c0-1.72-0.24-1.8-1.8-1.96v-0.56H312.55z
			 M310.53,477.43c0,1.5,0.64,1.92,2.14,1.92c3.6,0,5.44-2.46,5.44-5.96c0-2.18-0.74-3.84-2.32-4.8c-0.92-0.58-2.08-0.8-3.42-0.8
			c-0.9,0-1.38,0.12-1.58,0.28c-0.18,0.12-0.26,0.34-0.26,1.12V477.43z"/>
		<path class="st41" d="M328.67,480.09v-0.56c1.3-0.16,1.46-0.36,1.18-1.12c-0.26-0.78-0.66-1.78-1.08-3.04h-4.32
			c-0.32,0.9-0.62,1.68-0.9,2.5c-0.44,1.3-0.16,1.46,1.48,1.66v0.56h-4.62v-0.56c1.26-0.16,1.58-0.3,2.28-2.1l4.14-10.5l0.64-0.12
			c1.26,3.42,2.64,7.2,3.9,10.66c0.64,1.74,0.82,1.9,2.24,2.06v0.56H328.67z M326.67,469.43c-0.64,1.72-1.32,3.54-1.92,5.12h3.74
			L326.67,469.43z"/>
		<path class="st41" d="M345.55,466.81c3.42,0,6.48,2.62,6.48,6.6c0,4.3-2.92,6.98-6.6,6.98c-3.84,0-6.64-2.92-6.64-6.68
			C338.79,470.13,341.33,466.81,345.55,466.81z M345.15,467.55c-2.24,0-4.28,1.88-4.28,5.62c0,3.72,2.04,6.46,4.88,6.46
			c2.42,0,4.24-1.8,4.24-5.66C349.99,469.77,347.77,467.55,345.15,467.55z"/>
		<path class="st41" d="M363.91,476.77c-0.12,0.62-0.72,2.7-0.92,3.32h-9.3v-0.56c1.82-0.18,1.98-0.28,1.98-1.98v-7.94
			c0-1.7-0.2-1.8-1.8-1.96v-0.56h5.36v0.56c-1.6,0.16-1.82,0.24-1.82,1.96v8.14c0,1.22,0.16,1.5,1.3,1.52
			c0.02,0,1.46,0.02,1.58,0.02c1.02,0,1.32-0.12,1.78-0.62c0.5-0.52,0.92-1.32,1.22-2.06L363.91,476.77z"/>
		<path class="st41" d="M371.97,480.09v-0.56c1.3-0.16,1.46-0.36,1.18-1.12c-0.26-0.78-0.66-1.78-1.08-3.04h-4.32
			c-0.32,0.9-0.62,1.68-0.9,2.5c-0.44,1.3-0.16,1.46,1.48,1.66v0.56h-4.62v-0.56c1.26-0.16,1.58-0.3,2.28-2.1l4.14-10.5l0.64-0.12
			c1.26,3.42,2.64,7.2,3.9,10.66c0.64,1.74,0.82,1.9,2.24,2.06v0.56H371.97z M369.97,469.43c-0.64,1.72-1.32,3.54-1.92,5.12h3.74
			L369.97,469.43z"/>
		<path class="st41" d="M389.41,476.89c-0.28,0.96-0.8,2.4-1.1,3.02c-0.58,0.12-2.14,0.48-3.66,0.48c-4.78,0-7.22-3.18-7.22-6.68
			c0-4.08,3.1-6.9,7.58-6.9c1.72,0,3.12,0.36,3.78,0.46c0.08,0.9,0.22,2.1,0.38,3.1l-0.62,0.14c-0.4-1.34-0.88-2.16-1.9-2.58
			c-0.52-0.24-1.34-0.38-2.1-0.38c-3.3,0-5.04,2.44-5.04,5.74c0,3.86,2,6.34,5.24,6.34c2.04,0,3.04-0.94,4.06-2.94L389.41,476.89z"
			/>
		<path class="st41" d="M397.91,480.09v-0.56c1.3-0.16,1.46-0.36,1.18-1.12c-0.26-0.78-0.66-1.78-1.08-3.04h-4.32
			c-0.32,0.9-0.62,1.68-0.9,2.5c-0.44,1.3-0.16,1.46,1.48,1.66v0.56h-4.62v-0.56c1.26-0.16,1.58-0.3,2.28-2.1l4.14-10.5l0.64-0.12
			c1.26,3.42,2.64,7.2,3.9,10.66c0.64,1.74,0.82,1.9,2.24,2.06v0.56H397.91z M395.91,469.43c-0.64,1.72-1.32,3.54-1.92,5.12h3.74
			L395.91,469.43z"/>
		<path class="st41" d="M403.35,467.09h5.34v0.56c-1.56,0.14-1.84,0.28-1.84,2.06v3.44c0.4-0.04,0.86-0.36,1.44-0.92
			c1.12-1.06,2.46-2.42,3.38-3.46c0.6-0.68,0.54-0.94-0.32-1.06l-0.56-0.06v-0.56h4.86v0.56c-1.5,0.18-2.02,0.28-3.36,1.66
			c-0.6,0.58-2.16,2.1-3.44,3.36c1.52,1.8,3.74,4.36,4.78,5.46c1.02,1.1,1.28,1.26,2.52,1.4v0.56h-3.2
			c-1.54-1.74-3.16-3.68-4.98-5.8c-0.46-0.56-0.8-0.6-1.12-0.58v3.8c0,1.74,0.18,1.88,1.84,2.02v0.56h-5.34v-0.56
			c1.64-0.14,1.8-0.28,1.8-2.02v-7.8c0-1.8-0.14-1.94-1.8-2.06V467.09z"/>
	</g>
</g>
<g>
	<path class="st42" d="M222.14,190.87c0,0-43.35-60.87-96.77-12.96c-1.82,1.64-3.81,3.68-5.78,6.16c-2.92,3.67-4.93,7.22-6.32,10.17
		c-1.55,4.04-3.53,10.11-4.66,17.67c-4.56,30.31,8.93,54.81,16.76,69.02c27.6,50.12,81.37,77.1,96.77,84.34"/>
	<path class="st42" d="M218.14,190.87c0,0,43.35-60.87,96.77-12.96c1.82,1.64,3.81,3.68,5.78,6.16c2.92,3.67,4.93,7.22,6.32,10.17
		c1.55,4.04,3.53,10.11,4.66,17.67c4.56,30.31-8.93,54.81-16.76,69.02c-27.6,50.12-81.37,77.1-96.77,84.34"/>
</g>
<g>
	<path d="M630.27,198.79c0,0-43.35-60.87-96.77-12.96c-1.82,1.64-3.81,3.68-5.78,6.16c-2.92,3.67-4.93,7.22-6.32,10.17
		c-1.55,4.04-3.53,10.11-4.66,17.67c-4.56,30.31,8.93,54.81,16.76,69.02c27.6,50.12,81.37,77.1,96.77,84.34"/>
	<path d="M626.27,198.79c0,0,43.35-60.87,96.77-12.96c1.82,1.64,3.81,3.68,5.78,6.16c2.92,3.67,4.93,7.22,6.32,10.17
		c1.55,4.04,3.53,10.11,4.66,17.67c4.56,30.31-8.93,54.81-16.76,69.02c-27.6,50.12-81.37,77.1-96.77,84.34"/>
</g>
<g>
	<g>
		<path class="st41" d="M540.19,472.83c1.92,0.32,3.48,1.24,3.48,3.18c0,1.36-0.76,2.44-1.94,3.08c-1.04,0.58-2.06,0.78-3.46,0.78
			h-4.92v-0.56c1.7-0.16,1.8-0.34,1.8-1.92v-8.02c0-1.66-0.18-1.8-1.8-1.94v-0.56h5.24c1.5,0,2.44,0.26,3.08,0.7
			c0.7,0.48,1.18,1.22,1.18,2.24C542.85,471.69,541.31,472.55,540.19,472.83z M537.89,472.59c2.2,0,3.1-0.88,3.1-2.52
			c0-1.4-0.86-2.48-2.78-2.48c-0.56,0-0.92,0.06-1.12,0.2c-0.16,0.12-0.22,0.34-0.22,0.98v3.82H537.89z M536.87,477.35
			c0,1.44,0.34,1.8,1.76,1.8c1.56,0,3.08-0.84,3.08-2.94c0-2.04-1.44-2.92-3.88-2.92h-0.96V477.35z"/>
		<path class="st41" d="M555.69,476.69c-0.12,0.52-0.66,2.58-0.86,3.18h-9.72v-0.56c1.86-0.14,2-0.32,2-1.96v-7.9
			c0-1.78-0.22-1.88-1.72-2.02v-0.56h6.12c1.88,0,2.66-0.02,2.9-0.04c0.02,0.5,0.1,2,0.18,3.06l-0.6,0.1
			c-0.18-0.68-0.38-1.1-0.6-1.52c-0.32-0.66-0.78-0.8-1.98-0.8h-1.9c-0.62,0-0.66,0.06-0.66,0.64v4.42h2.22c1.5,0,1.6-0.3,1.84-1.66
			h0.62v4.12h-0.62c-0.26-1.44-0.42-1.64-1.86-1.64h-2.2v3.98c0,1.4,0.44,1.52,1.44,1.54h1.86c1.22,0,1.42-0.18,1.86-0.7
			c0.38-0.42,0.8-1.24,1.08-1.84L555.69,476.69z"/>
		<path class="st41" d="M567.97,479.27c-0.78,0.28-2.32,0.74-4.14,0.74c-2.04,0-3.72-0.52-5.04-1.78c-1.16-1.12-1.88-2.92-1.88-5.02
			c0.02-4.02,2.78-6.96,7.3-6.96c1.56,0,2.78,0.34,3.36,0.62l-0.42,1.42c-0.72-0.32-1.62-0.58-2.98-0.58
			c-3.28,0-5.42,2.04-5.42,5.42c0,3.42,2.06,5.44,5.2,5.44c1.14,0,1.92-0.16,2.32-0.36v-4.02h-2.74v-1.4h4.44V479.27z
			 M562.01,463.33c0.1,0.46,0.44,0.98,1.42,0.98c0.98,0,1.36-0.46,1.46-0.98h1.02c-0.02,1.18-0.78,2.12-2.5,2.12
			c-1.7,0-2.42-0.92-2.46-2.12H562.01z"/>
		<path class="st41" d="M577.61,473.55h-5.24v4.86h5.84v1.46h-7.58v-13.48h7.28v1.46h-5.54v4.26h5.24V473.55z"/>
		<path class="st41" d="M580.47,479.87v-13.48h1.9l4.32,6.82c1,1.58,1.78,3,2.42,4.38l0.04-0.02c-0.16-1.8-0.2-3.44-0.2-5.54v-5.64
			h1.64v13.48h-1.76l-4.28-6.84c-0.94-1.5-1.84-3.04-2.52-4.5l-0.06,0.02c0.1,1.7,0.14,3.32,0.14,5.56v5.76H580.47z"/>
		<path class="st41" d="M593.63,466.57c1.06-0.16,2.32-0.28,3.7-0.28c2.5,0,4.28,0.58,5.46,1.68c1.2,1.1,1.9,2.66,1.9,4.84
			c0,2.2-0.68,4-1.94,5.24c-1.26,1.26-3.34,1.94-5.96,1.94c-1.24,0-2.28-0.06-3.16-0.16V466.57z M595.37,478.49
			c0.44,0.08,1.08,0.1,1.76,0.1c3.72,0,5.74-2.08,5.74-5.72c0.02-3.18-1.78-5.2-5.46-5.2c-0.9,0-1.58,0.08-2.04,0.18V478.49z"/>
		<path class="st41" d="M606.85,464.43c0-0.52,0.44-1,1-1c0.54,0,0.96,0.48,0.96,1s-0.42,1.02-0.96,1.02
			C607.27,465.45,606.85,464.95,606.85,464.43z M608.69,466.39v13.48h-1.74v-13.48H608.69z"/>
		<path class="st41" d="M611.73,466.39h1.74v6.5h0.06c0.36-0.52,0.72-1,1.06-1.44l4.12-5.06h2.16l-4.88,5.72l5.26,7.76h-2.06
			l-4.44-6.62l-1.28,1.48v5.14h-1.74V466.39z"/>
		<path class="st41" d="M625.13,467.87h-4.1v-1.48h9.98v1.48h-4.12v12h-1.76V467.87z"/>
		<path class="st41" d="M639.49,473.55h-5.24v4.86h5.84v1.46h-7.58v-13.48h7.28v1.46h-5.54v4.26h5.24V473.55z"/>
		<path class="st41" d="M642.35,479.87v-13.48h1.9l4.32,6.82c1,1.58,1.78,3,2.42,4.38l0.04-0.02c-0.16-1.8-0.2-3.44-0.2-5.54v-5.64
			h1.64v13.48h-1.76l-4.28-6.84c-0.94-1.5-1.84-3.04-2.52-4.5l-0.06,0.02c0.1,1.7,0.14,3.32,0.14,5.56v5.76H642.35z"/>
		<path class="st41" d="M659.51,477.75c0.78,0.48,1.92,0.88,3.12,0.88c1.78,0,2.82-0.94,2.82-2.3c0-1.26-0.72-1.98-2.54-2.68
			c-2.2-0.78-3.56-1.92-3.56-3.82c0-2.1,1.74-3.66,4.36-3.66c1.38,0,2.38,0.32,2.98,0.66l-0.48,1.42c-0.44-0.24-1.34-0.64-2.56-0.64
			c-1.84,0-2.54,1.1-2.54,2.02c0,1.26,0.82,1.88,2.68,2.6c2.28,0.88,3.44,1.98,3.44,3.96c0,2.08-1.54,3.88-4.72,3.88
			c-1.3,0-2.72-0.38-3.44-0.86L659.51,477.75z"/>
		<path class="st41" d="M681.13,472.99c0,4.64-2.82,7.1-6.26,7.1c-3.56,0-6.06-2.76-6.06-6.84c0-4.28,2.66-7.08,6.26-7.08
			C678.75,466.17,681.13,468.99,681.13,472.99z M670.67,473.21c0,2.88,1.56,5.46,4.3,5.46c2.76,0,4.32-2.54,4.32-5.6
			c0-2.68-1.4-5.48-4.3-5.48C672.11,467.59,670.67,470.25,670.67,473.21z"/>
		<path class="st41" d="M683.39,479.87v-13.48h1.9l4.32,6.82c1,1.58,1.78,3,2.42,4.38l0.04-0.02c-0.16-1.8-0.2-3.44-0.2-5.54v-5.64
			h1.64v13.48h-1.76l-4.28-6.84c-0.94-1.5-1.84-3.04-2.52-4.5l-0.06,0.02c0.1,1.7,0.14,3.32,0.14,5.56v5.76H683.39z"/>
		<path class="st41" d="M696.55,466.57c0.88-0.18,2.14-0.28,3.34-0.28c1.86,0,3.06,0.34,3.9,1.1c0.68,0.6,1.06,1.52,1.06,2.56
			c0,1.78-1.12,2.96-2.54,3.44v0.06c1.04,0.36,1.66,1.32,1.98,2.72c0.44,1.88,0.76,3.18,1.04,3.7h-1.8
			c-0.22-0.38-0.52-1.54-0.9-3.22c-0.4-1.86-1.12-2.56-2.7-2.62h-1.64v5.84h-1.74V466.57z M698.29,472.71h1.78
			c1.86,0,3.04-1.02,3.04-2.56c0-1.74-1.26-2.5-3.1-2.52c-0.84,0-1.44,0.08-1.72,0.16V472.71z"/>
		<path class="st41" d="M709.49,475.63l-1.4,4.24h-1.8l4.58-13.48h2.1l4.6,13.48h-1.86l-1.44-4.24H709.49z M713.91,474.27
			l-1.32-3.88c-0.3-0.88-0.5-1.68-0.7-2.46h-0.04c-0.2,0.8-0.42,1.62-0.68,2.44l-1.32,3.9H713.91z"/>
	</g>
</g>
</svg>
