<?xml version="1.0" encoding="utf-8"?>
<!-- Generator: Adobe Illustrator 27.6.1, SVG Export Plug-In . SVG Version: 6.00 Build 0)  -->
<svg version="1.1" id="Layer_1" xmlns="http://www.w3.org/2000/svg" xmlns:xlink="http://www.w3.org/1999/xlink" x="0px" y="0px"
	 viewBox="0 0 841.89 595.28" style="enable-background:new 0 0 841.89 595.28;" xml:space="preserve">
<style type="text/css">
	.st0{fill:#F9F9FA;stroke:#000000;stroke-width:7;stroke-miterlimit:10;}
	.st1{fill:#FFFFFF;stroke:#A5A4A4;stroke-width:16;stroke-miterlimit:10;}
	.st2{fill:#020203;}
	.st3{fill:#FFFFFF;}
	.st4{fill:#020202;}
	.st5{fill:none;stroke:#030403;stroke-width:3;stroke-miterlimit:10;}
	.st6{fill:#FFFFFF;stroke:#070A07;stroke-width:3;stroke-miterlimit:10;}
	.st7{fill:#FFFFFF;stroke:#070A07;stroke-width:0.25;stroke-miterlimit:10;}
	.st8{fill:none;stroke:#0B0E0A;stroke-width:2;stroke-miterlimit:10;}
	.st9{fill:#0B0E0A;stroke:#0B0E0A;stroke-width:0.25;stroke-miterlimit:10;}
	.st10{fill:#040504;}
	.st11{fill:none;stroke:#000000;stroke-width:12;stroke-miterlimit:10;}
	.st12{fill:#090706;}
	.st13{fill:#777777;}
	.st14{fill:none;stroke:#0A0807;stroke-miterlimit:10;}
	.st15{fill:#070605;}
	.st16{fill:none;stroke:#070605;stroke-miterlimit:10;}
	.st17{fill:none;stroke:#070605;stroke-width:10;stroke-miterlimit:10;}
	.st18{fill:none;stroke:#ED1C3D;stroke-width:9;stroke-miterlimit:10;}
	.st19{stroke:#ED1C3D;stroke-width:11;stroke-miterlimit:10;}
	.st20{fill:none;stroke:#000000;stroke-miterlimit:10;}
	.st21{fill:#080808;}
	.st22{fill:#ED1C26;}
	.st23{fill:none;stroke:#000000;stroke-width:4;stroke-miterlimit:10;}
	.st24{fill:none;stroke:#000000;stroke-width:13;stroke-miterlimit:10;}
	.st25{fill:none;stroke:#F4F4F5;stroke-width:3;stroke-miterlimit:10;}
	.st26{fill:none;stroke:#0A0505;stroke-width:19;stroke-miterlimit:10;}
	.st27{fill:none;stroke:#000000;stroke-width:14;stroke-miterlimit:10;}
	.st28{fill:none;stroke:#000000;stroke-width:11;stroke-miterlimit:10;}
	.st29{fill:#A5A4A4;}
	.st30{fill:none;stroke:#000000;stroke-width:20;stroke-miterlimit:10;}
	.st31{fill:#FFFFFF;stroke:#030202;stroke-width:11;stroke-miterlimit:10;}
	.st32{fill:#FFFFFF;stroke:#070505;stroke-width:10;stroke-miterlimit:10;}
	.st33{fill:none;stroke:#000000;stroke-width:18;stroke-miterlimit:10;}
	.st34{fill:none;stroke:#000000;stroke-width:7;stroke-miterlimit:10;}
	.st35{fill:none;stroke:#070404;stroke-width:8;stroke-miterlimit:10;}
	.st36{fill:none;stroke:#070404;stroke-width:6;stroke-miterlimit:10;}
	.st37{fill:#070404;}
	.st38{fill:none;stroke:#070404;stroke-width:11;stroke-miterlimit:10;}
	.st39{fill:#ED1940;}
	.st40{fill:none;stroke:#000000;stroke-width:9;stroke-miterlimit:10;}
	.st41{fill:none;stroke:#000000;stroke-width:15;stroke-miterlimit:10;}
</style>
<path class="st5" d="M471.31,413.9c0-58.98,0-117.97,0-176.95c-42.55-22.29,0-51.33,0-51.33l-24.99-68.21
	c-7.08,15.29-14.4,34.11-20.18,56.14c-5.23,19.94-8.06,38.14-9.54,53.72c0,62.21,0,124.42,0,186.63H471.31z"/>
<path class="st6" d="M485.79,368.4h-83.67c-3.92,0-7.12-3.21-7.12-7.12v-39.9c0-3.92,3.21-7.12,7.12-7.12h83.67
	c3.92,0,7.12,3.21,7.12,7.12v39.9C492.91,365.2,489.71,368.4,485.79,368.4z"/>
<path class="st6" d="M485.79,314.26h-83.67c-3.92,0-7.12-3.21-7.12-7.12v-39.9c0-3.92,3.21-7.12,7.12-7.12h83.67
	c3.92,0,7.12,3.21,7.12,7.12v39.9C492.91,311.05,489.71,314.26,485.79,314.26z"/>
<path class="st7" d="M471.31,185.62c0,0-23.85,32.83,0,51.33"/>
<path class="st8" d="M380.6,192.99c-6.19-2.37-47.19-17.73-55.86-4.37c-2.15,3.31-4.09,11.1,9.78,33.5
	c13.66,22.07,45.62,63.07,124.29,107.77c54.74,23.77,97.44,33.13,104.74,20.39c9.64-16.83-44.89-67.98-51.67-74.27"/>
<path class="st8" d="M507.31,192.99c6.19-2.37,47.19-17.73,55.86-4.37c2.15,3.31,4.09,11.1-9.78,33.5
	c-13.66,22.07-45.62,63.07-124.29,107.77c-54.74,23.77-97.44,33.13-104.74,20.39c-9.64-16.83,44.89-67.98,51.67-74.27"/>
<path class="st9" d="M345.86,153.74h-3.75c-0.37,0-0.67-0.3-0.67-0.67v-3.75c0-0.37,0.3-0.67,0.67-0.67h3.75
	c0.37,0,0.67,0.3,0.67,0.67v3.75C346.53,153.44,346.23,153.74,345.86,153.74z"/>
<path class="st10" d="M393.45,163.62h-3.9c-0.38,0-0.7-0.31-0.7-0.7v-8.48c0-0.38,0.31-0.7,0.7-0.7h3.9c0.38,0,0.7,0.31,0.7,0.7
	v8.48C394.15,163.31,393.84,163.62,393.45,163.62z"/>
<path class="st10" d="M378.18,167.84v-3.9c0-0.38,0.31-0.7,0.7-0.7h8.48c0.38,0,0.7,0.31,0.7,0.7v3.9c0,0.38-0.31,0.7-0.7,0.7h-8.48
	C378.5,168.53,378.18,168.22,378.18,167.84z"/>
<path class="st10" d="M394.75,167.84v-3.9c0-0.38,0.31-0.7,0.7-0.7h8.48c0.38,0,0.7,0.31,0.7,0.7v3.9c0,0.38-0.31,0.7-0.7,0.7h-8.48
	C395.06,168.53,394.75,168.22,394.75,167.84z"/>
<path class="st10" d="M393.45,178.41h-3.9c-0.38,0-0.7-0.31-0.7-0.7v-8.48c0-0.38,0.31-0.7,0.7-0.7h3.9c0.38,0,0.7,0.31,0.7,0.7
	v8.48C394.15,178.09,393.84,178.41,393.45,178.41z"/>
<g>
	<path class="st10" d="M506.16,390.61h-3.9c-0.38,0-0.7-0.31-0.7-0.7v-8.48c0-0.38,0.31-0.7,0.7-0.7h3.9c0.38,0,0.7,0.31,0.7,0.7
		v8.48C506.86,390.3,506.54,390.61,506.16,390.61z"/>
	<path class="st10" d="M490.89,394.83v-3.9c0-0.38,0.31-0.7,0.7-0.7h8.48c0.38,0,0.7,0.31,0.7,0.7v3.9c0,0.38-0.31,0.7-0.7,0.7
		h-8.48C491.2,395.52,490.89,395.21,490.89,394.83z"/>
	<path class="st10" d="M507.45,394.83v-3.9c0-0.38,0.31-0.7,0.7-0.7h8.48c0.38,0,0.7,0.31,0.7,0.7v3.9c0,0.38-0.31,0.7-0.7,0.7
		h-8.48C507.77,395.52,507.45,395.21,507.45,394.83z"/>
	<path class="st10" d="M506.16,405.4h-3.9c-0.38,0-0.7-0.31-0.7-0.7v-8.48c0-0.38,0.31-0.7,0.7-0.7h3.9c0.38,0,0.7,0.31,0.7,0.7
		v8.48C506.86,405.08,506.54,405.4,506.16,405.4z"/>
</g>
<path class="st9" d="M497.7,175.9h-3.75c-0.37,0-0.67-0.3-0.67-0.67v-3.75c0-0.37,0.3-0.67,0.67-0.67h3.75
	c0.37,0,0.67,0.3,0.67,0.67v3.75C498.37,175.59,498.07,175.9,497.7,175.9z"/>
<path class="st9" d="M366.69,383.28h-3.75c-0.37,0-0.67-0.3-0.67-0.67v-3.75c0-0.37,0.3-0.67,0.67-0.67h3.75
	c0.37,0,0.67,0.3,0.67,0.67v3.75C367.36,382.98,367.06,383.28,366.69,383.28z"/>
</svg>
