<?xml version="1.0" encoding="utf-8"?>
<!-- Generator: Adobe Illustrator 27.6.1, SVG Export Plug-In . SVG Version: 6.00 Build 0)  -->
<svg version="1.1" id="Layer_1" xmlns="http://www.w3.org/2000/svg" xmlns:xlink="http://www.w3.org/1999/xlink" x="0px" y="0px"
	 viewBox="0 0 841.89 595.28" style="enable-background:new 0 0 841.89 595.28;" xml:space="preserve">
<style type="text/css">
	.st0{fill:#F9F9FA;stroke:#000000;stroke-width:7;stroke-miterlimit:10;}
	.st1{fill:#FFFFFF;stroke:#A5A4A4;stroke-width:16;stroke-miterlimit:10;}
	.st2{fill:#020203;}
	.st3{fill:#FFFFFF;}
	.st4{fill:#020202;}
	.st5{fill:none;stroke:#030403;stroke-width:3;stroke-miterlimit:10;}
	.st6{fill:#FFFFFF;stroke:#070A07;stroke-width:3;stroke-miterlimit:10;}
	.st7{fill:#FFFFFF;stroke:#070A07;stroke-width:0.25;stroke-miterlimit:10;}
	.st8{fill:none;stroke:#0B0E0A;stroke-width:2;stroke-miterlimit:10;}
	.st9{fill:#0B0E0A;stroke:#0B0E0A;stroke-width:0.25;stroke-miterlimit:10;}
	.st10{fill:#040504;}
	.st11{fill:none;stroke:#000000;stroke-width:12;stroke-miterlimit:10;}
	.st12{fill:#090706;}
	.st13{fill:#777777;}
	.st14{fill:none;stroke:#0A0807;stroke-miterlimit:10;}
	.st15{fill:#070605;}
	.st16{fill:none;stroke:#070605;stroke-miterlimit:10;}
	.st17{fill:none;stroke:#070605;stroke-width:10;stroke-miterlimit:10;}
	.st18{fill:none;stroke:#ED1C3D;stroke-width:9;stroke-miterlimit:10;}
	.st19{stroke:#ED1C3D;stroke-width:11;stroke-miterlimit:10;}
	.st20{fill:none;stroke:#000000;stroke-miterlimit:10;}
	.st21{fill:#080808;}
	.st22{fill:#ED1C26;}
	.st23{fill:none;stroke:#000000;stroke-width:4;stroke-miterlimit:10;}
	.st24{fill:none;stroke:#000000;stroke-width:13;stroke-miterlimit:10;}
	.st25{fill:none;stroke:#F4F4F5;stroke-width:3;stroke-miterlimit:10;}
	.st26{fill:none;stroke:#0A0505;stroke-width:19;stroke-miterlimit:10;}
	.st27{fill:none;stroke:#000000;stroke-width:14;stroke-miterlimit:10;}
	.st28{fill:none;stroke:#000000;stroke-width:11;stroke-miterlimit:10;}
	.st29{fill:#A5A4A4;}
	.st30{fill:none;stroke:#000000;stroke-width:20;stroke-miterlimit:10;}
	.st31{fill:#FFFFFF;stroke:#030202;stroke-width:11;stroke-miterlimit:10;}
	.st32{fill:#FFFFFF;stroke:#070505;stroke-width:10;stroke-miterlimit:10;}
	.st33{fill:none;stroke:#000000;stroke-width:18;stroke-miterlimit:10;}
	.st34{fill:none;stroke:#000000;stroke-width:7;stroke-miterlimit:10;}
	.st35{fill:none;stroke:#070404;stroke-width:8;stroke-miterlimit:10;}
	.st36{fill:none;stroke:#070404;stroke-width:6;stroke-miterlimit:10;}
	.st37{fill:#070404;}
	.st38{fill:none;stroke:#070404;stroke-width:11;stroke-miterlimit:10;}
	.st39{fill:#ED1940;}
	.st40{fill:none;stroke:#000000;stroke-width:9;stroke-miterlimit:10;}
	.st41{font-family:'Arial-Black';}
	.st42{font-size:20px;}
	.st43{fill:none;stroke:#000000;stroke-width:15;stroke-miterlimit:10;}
</style>
<g>
	<g>
		<path class="st15" d="M504.23,209.89c-83.93,3.32-180.74,5.21-264.92,6.37c0,0,6.21-7.77,6.21-7.77l5.5,22.84
			c11.75,49.47,26,110.5,37.36,160.14c0,0-7.72-6.17-7.72-6.17l58.55-0.09c52.16-0.02,123.49,0.33,175.64,0.8
			c0,0-7.02,5.63-7.02,5.63c13.32-57.09,28.56-121.03,42.56-177.96c4.97-20.54,10.19-41.03,15.3-61.54
			c12.12,0.32,34.28,0.97,46.41,1.37c13.17,0.34,30.91,1.12,44.15,1.6c-28.13,1.15-60.14,2.16-88.31,2.91c0,0,2.84-2.28,2.84-2.28
			c-15.63,80.43-33.06,164.4-50.09,244.61c-32.06,0.29-90.85,0.67-122.94,0.76c-32.31,0.01-91.15,0.14-123.45-0.01
			c0,0-1.36-6.16-1.36-6.16c-13.48-61.1-28.76-130.43-41.51-191.55c0,0,7.87,0.12,7.87,0.12
			C323.57,204.71,420.24,206.54,504.23,209.89L504.23,209.89z"/>
	</g>
	<circle class="st15" cx="320.43" cy="436.88" r="24.62"/>
	<circle class="st15" cx="470.81" cy="436.88" r="24.62"/>
	<g>
		<path class="st15" d="M361.61,274.16c81.28-13.4,163.13-21.68,244.68-32.71c14.04-2.04,28.16-3.87,41.9-7.25
			c2.15-0.59,4.18-1.15,5.81-2.03c0.02-0.01,0.06-0.03,0.04-0.02c0,0-0.01,0.02-0.07,0.08c-1.2,1.28-0.95,3.82,0.28,4.76
			c0.25,0.18,0.08,0.01-0.16-0.1c-5.21-2.07-11.06-2.54-16.74-3.42c-24.44-3.03-49.09-4.42-73.68-6.7
			c24.78-1.55,49.56-2.37,74.42-1.15c5.25,0.32,10.68,0.72,15.99,1.84c3.42,0.71,8.27,2.39,8.35,7c-0.14,5.77-7.3,7.57-11.48,9.08
			c-6.08,1.94-12.28,3.31-18.45,4.63c-16.27,3.4-32.61,5.89-49.02,8.26C509.89,266.39,435.88,272.7,361.61,274.16L361.61,274.16z"/>
	</g>
	<g>
		<path class="st15" d="M361.61,332.98c75.09-12.83,150.75-20.52,226.16-30.66c11.19-1.57,22.38-3.14,33.39-5.41
			c3.62-0.72,7.78-1.78,10.51-2.94c-1.25,1.32-1,3.93,0.28,4.91c-3.87-1.72-10.4-2.45-15.42-3.21c-7.44-0.98-14.99-1.73-22.55-2.43
			c-15.13-1.47-30.33-2.55-45.54-4.06c15.24-1.15,30.5-1.65,45.8-1.82c7.65-0.03,15.31,0.04,23.03,0.47
			c4.86,0.28,9.91,0.64,14.84,1.67c2.01,0.51,3.87,0.87,5.85,2.43c2.2,1.68,2.91,5.31,1.05,7.75c-2.32,3.07-6.59,4.23-9.77,5.36
			c-13,4-26.43,6.21-39.75,8.53C514.08,325.31,437.92,331.73,361.61,332.98L361.61,332.98z"/>
	</g>
</g>
<text transform="matrix(1 0 0 1 40.4598 39.8774)" class="st41 st42">SEPET</text>
</svg>
