<?xml version="1.0" encoding="utf-8"?>
<!-- Generator: Adobe Illustrator 27.6.1, SVG Export Plug-In . SVG Version: 6.00 Build 0)  -->
<svg version="1.1" id="Layer_1" xmlns="http://www.w3.org/2000/svg" xmlns:xlink="http://www.w3.org/1999/xlink" x="0px" y="0px"
	 viewBox="0 0 841.89 595.28" style="enable-background:new 0 0 841.89 595.28;" xml:space="preserve">
<style type="text/css">
	.st0{fill:#F9F9FA;stroke:#000000;stroke-width:7;stroke-miterlimit:10;}
	.st1{fill:#FFFFFF;stroke:#A5A4A4;stroke-width:16;stroke-miterlimit:10;}
	.st2{fill:#020203;}
	.st3{fill:#FFFFFF;}
	.st4{fill:#020202;}
	.st5{fill:none;stroke:#030403;stroke-width:3;stroke-miterlimit:10;}
	.st6{fill:#FFFFFF;stroke:#070A07;stroke-width:3;stroke-miterlimit:10;}
	.st7{fill:#FFFFFF;stroke:#070A07;stroke-width:0.25;stroke-miterlimit:10;}
	.st8{fill:none;stroke:#0B0E0A;stroke-width:2;stroke-miterlimit:10;}
	.st9{fill:#0B0E0A;stroke:#0B0E0A;stroke-width:0.25;stroke-miterlimit:10;}
	.st10{fill:#040504;}
	.st11{fill:none;stroke:#000000;stroke-width:12;stroke-miterlimit:10;}
	.st12{fill:#090706;}
	.st13{fill:#777777;}
	.st14{fill:none;stroke:#0A0807;stroke-miterlimit:10;}
	.st15{fill:#070605;}
	.st16{fill:none;stroke:#070605;stroke-miterlimit:10;}
	.st17{fill:none;stroke:#070605;stroke-width:10;stroke-miterlimit:10;}
	.st18{fill:none;stroke:#ED1C3D;stroke-width:9;stroke-miterlimit:10;}
	.st19{stroke:#ED1C3D;stroke-width:11;stroke-miterlimit:10;}
	.st20{fill:none;stroke:#000000;stroke-miterlimit:10;}
	.st21{fill:#080808;}
	.st22{fill:#ED1C26;}
	.st23{fill:none;stroke:#000000;stroke-width:4;stroke-miterlimit:10;}
	.st24{fill:none;stroke:#000000;stroke-width:13;stroke-miterlimit:10;}
	.st25{fill:none;stroke:#F4F4F5;stroke-width:3;stroke-miterlimit:10;}
	.st26{fill:none;stroke:#0A0505;stroke-width:19;stroke-miterlimit:10;}
	.st27{fill:none;stroke:#000000;stroke-width:14;stroke-miterlimit:10;}
	.st28{fill:none;stroke:#000000;stroke-width:11;stroke-miterlimit:10;}
	.st29{fill:#A5A4A4;}
	.st30{font-family:'Arial-Black';}
	.st31{font-size:20px;}
	.st32{fill:none;stroke:#000000;stroke-width:20;stroke-miterlimit:10;}
	.st33{fill:#FFFFFF;stroke:#030202;stroke-width:11;stroke-miterlimit:10;}
	.st34{fill:#FFFFFF;stroke:#070505;stroke-width:10;stroke-miterlimit:10;}
	.st35{fill:none;stroke:#000000;stroke-width:18;stroke-miterlimit:10;}
	.st36{fill:none;stroke:#000000;stroke-width:7;stroke-miterlimit:10;}
	.st37{fill:none;stroke:#070404;stroke-width:8;stroke-miterlimit:10;}
	.st38{fill:none;stroke:#070404;stroke-width:6;stroke-miterlimit:10;}
	.st39{fill:#070404;}
	.st40{fill:none;stroke:#070404;stroke-width:11;stroke-miterlimit:10;}
	.st41{fill:#ED1940;}
	.st42{fill:none;stroke:#000000;stroke-width:9;stroke-miterlimit:10;}
	.st43{fill:none;stroke:#000000;stroke-width:15;stroke-miterlimit:10;}
</style>
<g>
	<path d="M339.89,390.2h-32.54c-6.6,0-12-5.4-12-12v-42.29c0-6.6,5.4-12,12-12h32.54c6.6,0,12,5.4,12,12v42.29
		C351.89,384.8,346.49,390.2,339.89,390.2z"/>
	<path d="M421.45,390.2h-32.54c-6.6,0-12-5.4-12-12v-92.33c0-6.6,5.4-12,12-12h32.54c6.6,0,12,5.4,12,12v92.33
		C433.45,384.8,428.05,390.2,421.45,390.2z"/>
	<path d="M501.38,390.2h-32.54c-6.6,0-12-5.4-12-12V152.65c0-6.6,5.4-12,12-12h32.54c6.6,0,12,5.4,12,12V378.2
		C513.38,384.8,507.98,390.2,501.38,390.2z"/>
	<path d="M579.02,390.2h-32.54c-6.6,0-12-5.4-12-12V215.69c0-6.6,5.4-12,12-12h32.54c6.6,0,12,5.4,12,12V378.2
		C591.02,384.8,585.62,390.2,579.02,390.2z"/>
	<path d="M584.87,426.6h-280.1c-5.18,0-9.42-4.24-9.42-9.42v0c0-5.18,4.24-9.42,9.42-9.42h280.1c5.18,0,9.42,4.24,9.42,9.42v0
		C594.29,422.36,590.05,426.6,584.87,426.6z"/>
</g>
<g>
	<text transform="matrix(1 0 0 1 55.1834 71.7021)" class="st30 st31">VERİ</text>
</g>
</svg>
