<?xml version="1.0" encoding="utf-8"?>
<!-- Generator: Adobe Illustrator 27.6.1, SVG Export Plug-In . SVG Version: 6.00 Build 0)  -->
<svg version="1.1" id="Layer_1" xmlns="http://www.w3.org/2000/svg" xmlns:xlink="http://www.w3.org/1999/xlink" x="0px" y="0px"
	 viewBox="0 0 841.89 595.28" style="enable-background:new 0 0 841.89 595.28;" xml:space="preserve">
<style type="text/css">
	.st0{fill:#F9F9FA;stroke:#000000;stroke-width:7;stroke-miterlimit:10;}
	.st1{fill:#FFFFFF;stroke:#A5A4A4;stroke-width:16;stroke-miterlimit:10;}
	.st2{fill:#020203;}
	.st3{fill:#FFFFFF;}
	.st4{fill:#020202;}
	.st5{fill:none;stroke:#030403;stroke-width:3;stroke-miterlimit:10;}
	.st6{fill:#FFFFFF;stroke:#070A07;stroke-width:3;stroke-miterlimit:10;}
	.st7{fill:#FFFFFF;stroke:#070A07;stroke-width:0.25;stroke-miterlimit:10;}
	.st8{fill:none;stroke:#0B0E0A;stroke-width:2;stroke-miterlimit:10;}
	.st9{fill:#0B0E0A;stroke:#0B0E0A;stroke-width:0.25;stroke-miterlimit:10;}
	.st10{fill:#040504;}
	.st11{fill:none;stroke:#000000;stroke-width:12;stroke-miterlimit:10;}
	.st12{fill:#090706;}
	.st13{fill:#777777;}
	.st14{fill:none;stroke:#0A0807;stroke-miterlimit:10;}
	.st15{fill:#070605;}
	.st16{fill:none;stroke:#070605;stroke-miterlimit:10;}
	.st17{fill:none;stroke:#070605;stroke-width:10;stroke-miterlimit:10;}
	.st18{fill:none;stroke:#ED1C3D;stroke-width:9;stroke-miterlimit:10;}
	.st19{stroke:#ED1C3D;stroke-width:11;stroke-miterlimit:10;}
	.st20{fill:none;stroke:#000000;stroke-miterlimit:10;}
	.st21{fill:#080808;}
	.st22{fill:#ED1C26;}
	.st23{fill:none;stroke:#000000;stroke-width:4;stroke-miterlimit:10;}
	.st24{fill:none;stroke:#000000;stroke-width:13;stroke-miterlimit:10;}
	.st25{fill:none;stroke:#F4F4F5;stroke-width:3;stroke-miterlimit:10;}
	.st26{fill:none;stroke:#0A0505;stroke-width:19;stroke-miterlimit:10;}
	.st27{fill:none;stroke:#000000;stroke-width:14;stroke-miterlimit:10;}
	.st28{fill:none;stroke:#000000;stroke-width:11;stroke-miterlimit:10;}
	.st29{fill:#A5A4A4;}
	.st30{fill:none;stroke:#000000;stroke-width:20;stroke-miterlimit:10;}
	.st31{fill:#FFFFFF;stroke:#030202;stroke-width:11;stroke-miterlimit:10;}
	.st32{fill:#FFFFFF;stroke:#070505;stroke-width:10;stroke-miterlimit:10;}
	.st33{fill:none;stroke:#000000;stroke-width:18;stroke-miterlimit:10;}
	.st34{fill:none;stroke:#000000;stroke-width:7;stroke-miterlimit:10;}
	.st35{fill:none;stroke:#070404;stroke-width:8;stroke-miterlimit:10;}
	.st36{fill:none;stroke:#070404;stroke-width:6;stroke-miterlimit:10;}
	.st37{fill:#070404;}
	.st38{fill:none;stroke:#070404;stroke-width:11;stroke-miterlimit:10;}
	.st39{fill:#ED1940;}
	.st40{fill:none;stroke:#000000;stroke-width:9;stroke-miterlimit:10;}
	.st41{font-family:'Arial-Black';}
	.st42{font-size:20px;}
	.st43{fill:none;stroke:#000000;stroke-width:15;stroke-miterlimit:10;}
</style>
<g>
	<circle class="st2" cx="410.72" cy="297.64" r="100.3"/>
	<circle class="st3" cx="410.72" cy="297.64" r="77.87"/>
	<path class="st4" d="M378.61,246.54c7.57-4.43,15.14-8.85,22.72-13.28c0,0,57.42-32.41,92.61-23.61c0,0,43.06,4.17,30.1,50.93
		c-0.79,3.1-2.09,6.94-4.28,11.05c-3.37,6.31-7.48,10.69-10.53,13.45c-0.07-2.88-0.35-6.24-1.07-9.94c-1-5.14-2.55-9.44-4.03-12.77
		c0.85-1.1,7.45-9.9,4.61-19.94c-2.89-10.2-14.35-17.53-27.4-16.01c-2.36-0.24-6.07-0.45-10.57,0.05c0,0-4.48,0.5-9.34,1.95
		c-7.05,2.1-24.34,9.38-46.72,20.25c-7.39,4.28-14.78,8.56-22.17,12.84c-2.44,1.37-15.53,9.04-20.11,25.68
		c-4.45,16.19,2.37,29.15,3.79,31.71c1.32,2.06,11.73,17.65,30.32,18.92c8.77,0.6,15.71-2.24,19.34-4.08c0,0,31.25-10.19,22.8-48.16
		l-34.38,21.76c0,0-16.21-0.18-10.65-16.07l22.23-16.35l22.8-14.35c0,0,7.29-4.63,11.46,3.24c0,0,17.13,24.08,9.26,52.79
		c0,0-10.47,25-35.1,39.36c-24.63,14.35-81.59,38.9-102.42,34.26c0,0-33.34,0-38.43-25.47c0,0-8.8-25,17.6-57.42l6.95,29.63
		c0,0-17.6,31.49,16.67,31.49c0,0,30.56-0.93,53.25-12.96c-2.28-0.95-31.59-13.79-37.54-45.3
		C345.78,285.94,356.94,260.65,378.61,246.54z"/>
</g>
<text transform="matrix(1 0 0 1 45.0421 52.9079)" class="st41 st42">LOGO</text>
</svg>
