<?xml version="1.0" encoding="utf-8"?>
<!-- Generator: Adobe Illustrator 27.6.1, SVG Export Plug-In . SVG Version: 6.00 Build 0)  -->
<svg version="1.1" id="Layer_1" xmlns="http://www.w3.org/2000/svg" xmlns:xlink="http://www.w3.org/1999/xlink" x="0px" y="0px"
	 viewBox="0 0 841.89 595.28" style="enable-background:new 0 0 841.89 595.28;" xml:space="preserve">
<style type="text/css">
	.st0{fill:#F9F9FA;stroke:#000000;stroke-width:7;stroke-miterlimit:10;}
	.st1{fill:#FFFFFF;stroke:#A5A4A4;stroke-width:16;stroke-miterlimit:10;}
	.st2{fill:#020203;}
	.st3{fill:#FFFFFF;}
	.st4{fill:#020202;}
	.st5{fill:none;stroke:#030403;stroke-width:3;stroke-miterlimit:10;}
	.st6{fill:#FFFFFF;stroke:#070A07;stroke-width:3;stroke-miterlimit:10;}
	.st7{fill:#FFFFFF;stroke:#070A07;stroke-width:0.25;stroke-miterlimit:10;}
	.st8{fill:none;stroke:#0B0E0A;stroke-width:2;stroke-miterlimit:10;}
	.st9{fill:#0B0E0A;stroke:#0B0E0A;stroke-width:0.25;stroke-miterlimit:10;}
	.st10{fill:#040504;}
	.st11{fill:none;stroke:#000000;stroke-width:12;stroke-miterlimit:10;}
	.st12{fill:#090706;}
	.st13{fill:#777777;}
	.st14{fill:none;stroke:#0A0807;stroke-miterlimit:10;}
	.st15{fill:#070605;}
	.st16{fill:none;stroke:#070605;stroke-miterlimit:10;}
	.st17{fill:none;stroke:#070605;stroke-width:10;stroke-miterlimit:10;}
	.st18{fill:none;stroke:#ED1C3D;stroke-width:9;stroke-miterlimit:10;}
	.st19{stroke:#ED1C3D;stroke-width:11;stroke-miterlimit:10;}
	.st20{fill:none;stroke:#000000;stroke-miterlimit:10;}
	.st21{fill:#080808;}
	.st22{fill:#ED1C26;}
	.st23{fill:none;stroke:#000000;stroke-width:4;stroke-miterlimit:10;}
	.st24{fill:none;stroke:#000000;stroke-width:13;stroke-miterlimit:10;}
	.st25{fill:none;stroke:#F4F4F5;stroke-width:3;stroke-miterlimit:10;}
	.st26{fill:none;stroke:#0A0505;stroke-width:19;stroke-miterlimit:10;}
	.st27{fill:none;stroke:#000000;stroke-width:14;stroke-miterlimit:10;}
	.st28{fill:none;stroke:#000000;stroke-width:11;stroke-miterlimit:10;}
	.st29{fill:#A5A4A4;}
	.st30{fill:none;stroke:#000000;stroke-width:20;stroke-miterlimit:10;}
	.st31{fill:#FFFFFF;stroke:#030202;stroke-width:11;stroke-miterlimit:10;}
	.st32{fill:#FFFFFF;stroke:#070505;stroke-width:10;stroke-miterlimit:10;}
	.st33{fill:none;stroke:#000000;stroke-width:18;stroke-miterlimit:10;}
	.st34{fill:none;stroke:#000000;stroke-width:7;stroke-miterlimit:10;}
	.st35{fill:none;stroke:#070404;stroke-width:8;stroke-miterlimit:10;}
	.st36{fill:none;stroke:#070404;stroke-width:6;stroke-miterlimit:10;}
	.st37{fill:#070404;}
	.st38{fill:none;stroke:#070404;stroke-width:11;stroke-miterlimit:10;}
	.st39{fill:#ED1940;}
	.st40{fill:none;stroke:#000000;stroke-width:9;stroke-miterlimit:10;}
	.st41{font-family:'Arial-Black';}
	.st42{font-size:20px;}
	.st43{fill:none;stroke:#000000;stroke-width:15;stroke-miterlimit:10;}
</style>
<g>
	<path d="M447,106.82c0,0-10.55,4.54-11.2,10.37c-0.65,5.83,0,18.48,0,18.48c-8.26,1.44-19.5,4.56-31.08,11.67
		c-28.65,17.6-38.06,46.61-40.56,55.43c-0.33,22.46-0.66,44.93-1,67.39c-0.96,5.24-2.59,11.3-5.36,17.73
		c-7.75,17.97-20.21,29.06-27.81,34.74c-0.9,1.3-5.06,7.64-3.49,15.83c2.22,11.6,13.82,15.83,14.33,16l107.3,1.3L447,106.82z"/>
	<path d="M446.1,106.82c0,0,10.55,4.54,11.2,10.37c0.65,5.83,0,18.48,0,18.48c8.26,1.44,19.5,4.56,31.08,11.67
		c28.65,17.6,38.06,46.61,40.56,55.43c0.33,22.46,0.66,44.93,1,67.39c0.96,5.24,2.59,11.3,5.36,17.73
		c7.75,17.97,20.21,29.06,27.81,34.74c0.9,1.3,5.06,7.64,3.49,15.83c-2.22,11.6-13.82,15.83-14.33,16l-107.3,1.3L446.1,106.82z"/>
	<path d="M403.54,362.98h89.18c0,0-3.45,37.28-43.63,38.18C449.09,401.16,409.21,403.54,403.54,362.98z"/>
	<path class="st11" d="M381.1,134.13c0,0-42.12,29.55-42.12,71.08"/>
	<path class="st11" d="M509.3,131.46c0,0,42.12,29.55,42.12,71.08"/>
</g>
<text transform="matrix(1 0 0 1 36.2816 52.3447)" class="st41 st42">BİLDİRİMLER</text>
</svg>
