<?xml version="1.0" encoding="utf-8"?>
<!-- Generator: Adobe Illustrator 27.6.1, SVG Export Plug-In . SVG Version: 6.00 Build 0)  -->
<svg version="1.1" id="Layer_1" xmlns="http://www.w3.org/2000/svg" xmlns:xlink="http://www.w3.org/1999/xlink" x="0px" y="0px"
	 viewBox="0 0 841.89 595.28" style="enable-background:new 0 0 841.89 595.28;" xml:space="preserve">
<style type="text/css">
	.st0{fill:#F9F9FA;stroke:#000000;stroke-width:7;stroke-miterlimit:10;}
	.st1{fill:#FFFFFF;stroke:#A5A4A4;stroke-width:16;stroke-miterlimit:10;}
	.st2{fill:#020203;}
	.st3{fill:#FFFFFF;}
	.st4{fill:#020202;}
	.st5{fill:none;stroke:#030403;stroke-width:3;stroke-miterlimit:10;}
	.st6{fill:#FFFFFF;stroke:#070A07;stroke-width:3;stroke-miterlimit:10;}
	.st7{fill:#FFFFFF;stroke:#070A07;stroke-width:0.25;stroke-miterlimit:10;}
	.st8{fill:none;stroke:#0B0E0A;stroke-width:2;stroke-miterlimit:10;}
	.st9{fill:#0B0E0A;stroke:#0B0E0A;stroke-width:0.25;stroke-miterlimit:10;}
	.st10{fill:#040504;}
	.st11{fill:none;stroke:#000000;stroke-width:12;stroke-miterlimit:10;}
	.st12{fill:#090706;}
	.st13{fill:#777777;}
	.st14{fill:none;stroke:#0A0807;stroke-miterlimit:10;}
	.st15{fill:#070605;}
	.st16{fill:none;stroke:#070605;stroke-miterlimit:10;}
	.st17{fill:none;stroke:#070605;stroke-width:10;stroke-miterlimit:10;}
	.st18{fill:none;stroke:#ED1C3D;stroke-width:9;stroke-miterlimit:10;}
	.st19{stroke:#ED1C3D;stroke-width:11;stroke-miterlimit:10;}
	.st20{fill:none;stroke:#000000;stroke-miterlimit:10;}
	.st21{fill:#080808;}
	.st22{fill:#ED1C26;}
	.st23{fill:none;stroke:#000000;stroke-width:4;stroke-miterlimit:10;}
	.st24{fill:none;stroke:#000000;stroke-width:13;stroke-miterlimit:10;}
	.st25{fill:none;stroke:#F4F4F5;stroke-width:3;stroke-miterlimit:10;}
	.st26{fill:none;stroke:#0A0505;stroke-width:19;stroke-miterlimit:10;}
	.st27{fill:none;stroke:#000000;stroke-width:14;stroke-miterlimit:10;}
	.st28{fill:none;stroke:#000000;stroke-width:11;stroke-miterlimit:10;}
	.st29{fill:#A5A4A4;}
	.st30{fill:none;stroke:#000000;stroke-width:20;stroke-miterlimit:10;}
	.st31{fill:#FFFFFF;stroke:#030202;stroke-width:11;stroke-miterlimit:10;}
	.st32{fill:#FFFFFF;stroke:#070505;stroke-width:10;stroke-miterlimit:10;}
	.st33{fill:none;stroke:#000000;stroke-width:18;stroke-miterlimit:10;}
	.st34{fill:none;stroke:#000000;stroke-width:7;stroke-miterlimit:10;}
	.st35{fill:none;stroke:#070404;stroke-width:8;stroke-miterlimit:10;}
	.st36{fill:none;stroke:#070404;stroke-width:6;stroke-miterlimit:10;}
	.st37{fill:#070404;}
	.st38{fill:none;stroke:#070404;stroke-width:11;stroke-miterlimit:10;}
	.st39{fill:#ED1940;}
	.st40{fill:none;stroke:#000000;stroke-width:9;stroke-miterlimit:10;}
	.st41{font-family:'Arial-Black';}
	.st42{font-size:20px;}
	.st43{fill:none;stroke:#000000;stroke-width:15;stroke-miterlimit:10;}
</style>
<g>
	<circle class="st21" cx="449.47" cy="216.24" r="75.96"/>
	<path class="st21" d="M389.73,263.16c11.43,16.8,22.98,34.76,34.46,53.88c9.25,15.41,17.8,30.49,25.7,45.15
		c20.04-33.36,40.07-66.72,60.11-100.08"/>
	<circle class="st3" cx="449.47" cy="213.82" r="41.79"/>
	<g>
		<path class="st22" d="M425.49,328.34c-4.1,0.89-8.18,1.85-12.25,2.84c-4.08,0.97-8.14,1.98-12.19,3.03
			c-8.1,2.12-16.17,4.32-24.09,6.92c-3.96,1.28-7.9,2.63-11.74,4.15c-3.84,1.51-7.63,3.17-11.1,5.16c-1.72,1-3.37,2.1-4.74,3.31
			c-0.66,0.61-1.28,1.24-1.66,1.87c-0.24,0.31-0.33,0.61-0.48,0.89c-0.06,0.27-0.15,0.52-0.13,0.74c0.02,0.44,0.11,0.88,0.51,1.43
			c0.06,0.13,0.23,0.27,0.33,0.41c0.13,0.14,0.2,0.28,0.38,0.41c0.33,0.26,0.56,0.56,0.95,0.81c1.39,1.05,3.1,1.97,4.91,2.75
			c3.59,1.6,7.56,2.76,11.48,3.81c0.97,0.24,1.93,0.5,2.9,0.73l2.99,0.51l6.17,1c8.23,1.27,16.49,2.33,24.77,3.14
			c8.28,0.82,16.58,1.5,24.89,1.91c8.31,0.42,16.64,0.62,24.97,0.64c16.66,0.13,33.34-0.43,49.92-1.83
			c8.29-0.68,16.55-1.58,24.7-2.94c4.07-0.67,8.11-1.49,12.05-2.5c1.97-0.5,3.91-1.06,5.78-1.71c1.86-0.65,3.68-1.41,5.22-2.32
			c0.76-0.46,1.44-0.96,1.91-1.45c0.47-0.5,0.67-0.9,0.68-1.13c0.03-0.23-0.06-0.69-0.47-1.29c-0.4-0.59-1.01-1.21-1.68-1.81
			c-2.83-2.38-6.55-4.28-10.21-6.05c-7.45-3.48-15.32-6.3-23.22-8.96c-15.83-5.34-31.98-9.88-48.12-14.48
			c16.5,3.09,32.89,6.73,49.13,11.19c8.1,2.3,16.16,4.79,24.08,8.05c3.95,1.69,7.87,3.47,11.58,6.36c0.92,0.77,1.83,1.6,2.66,2.72
			c0.8,1.09,1.57,2.67,1.5,4.55c-0.05,0.91-0.3,1.81-0.67,2.54c-0.18,0.38-0.38,0.72-0.61,1.02c-0.22,0.33-0.45,0.6-0.68,0.87
			c-0.95,1.06-1.96,1.81-2.98,2.47c-2.03,1.3-4.09,2.2-6.15,3.01c-2.06,0.8-4.13,1.47-6.21,2.07c-4.16,1.18-8.33,2.08-12.51,2.87
			c-8.37,1.56-16.76,2.65-25.17,3.5c-16.82,1.62-33.69,2.24-50.56,2.22c-16.86-0.16-33.76-1.02-50.54-2.98
			c-8.39-0.99-16.74-2.23-25.05-3.68l-6.23-1.13l-3.2-0.62c-1.07-0.26-2.12-0.59-3.17-0.88c-4.13-1.25-8.2-2.58-12.22-4.51
			c-2.01-0.95-4-2.06-5.91-3.6c-0.48-0.34-0.94-0.85-1.39-1.28c-0.23-0.21-0.44-0.51-0.66-0.77c-0.21-0.28-0.44-0.51-0.62-0.84
			c-0.8-1.18-1.35-2.84-1.25-4.49c0.02-0.84,0.26-1.59,0.51-2.32c0.31-0.66,0.64-1.33,1.04-1.85c0.78-1.13,1.68-1.96,2.58-2.74
			c1.83-1.51,3.76-2.63,5.7-3.66c3.9-2,7.89-3.53,11.91-4.91c4.02-1.37,8.08-2.58,12.15-3.67c8.16-2.15,16.38-3.96,24.64-5.52
			c4.13-0.78,8.26-1.51,12.41-2.18C417.17,329.49,421.33,328.88,425.49,328.34z"/>
	</g>
</g>
<text transform="matrix(1 0 0 1 31.7055 52.668)" class="st41 st42">KONUM</text>
</svg>
